<?xml version="1.0" encoding="utf-8"?>
<!-- Generator: Adobe Illustrator 19.2.1, SVG Export Plug-In . SVG Version: 6.00 Build 0)  -->
<svg version="1.1" id="Layer_1" xmlns="http://www.w3.org/2000/svg" xmlns:xlink="http://www.w3.org/1999/xlink" x="0px" y="0px"
	 viewBox="0 0 873.3 251.2" style="enable-background:new 0 0 873.3 251.2;" xml:space="preserve">
<style type="text/css">
	.st0{fill:#434C54;}
	.st1{fill:url(#SVGID_1_);}
</style>
<g>
	<g>
		<path class="st0" d="M318.3,94.9c-2.3-0.8-7.2-1.3-12-1.3c-14.6,0-30.2,11.8-30.2,26.4v69.7h-33.3V65.4h32v12.6
			c7.4-9.2,21-15.1,36.1-15.1c4.9,0,7.7,0.5,11.3,1L318.3,94.9z"/>
		<path class="st0" d="M356,0c12,0,21.8,9.2,21.8,21.3S368,42.6,356,42.6c-12,0-21.8-9.2-21.8-21.3S343.9,0,356,0z M372.7,189.7
			h-33.3V65.4h33.3V189.7z"/>
		<path class="st0" d="M471.1,62.8c-14.1,0-26.7,4.6-36.4,12.6v-10h-32.1v185.8H436V181c10,7.7,20.8,11.3,33.3,11.3
			c18.5,0,36.1-8.2,47.2-21c9.7-11.3,15.6-26.7,15.6-43.6C532.1,91,504.9,62.8,471.1,62.8z M467,162c-20.7,0-34.3-14.3-34.3-34.2
			c0-20,13.6-34.2,34.3-34.2c17.7,0,32,15.3,32,34.2S484.7,162,467,162z"/>
		<path class="st0" d="M734.4,189.7H701V7.7h33.3V189.7z"/>
		<path class="st0" d="M870.2,170c-12,14.4-31.8,22.3-51,22.3c-37.2,0-65.1-25.6-65.1-64.6c0-34.6,23.6-64.9,60.5-64.9
			c34.4,0,58.7,29,58.7,63.6c0,3.3-0.3,6.7-0.8,9.5h-86.1c1.8,17.4,15.9,29.5,33.6,29.5c14.1,0,25.4-7.9,31.3-14.4L870.2,170z
			 M839.2,111.5c-1-11-11-21.8-24.6-21.8c-13.8,0-25.1,10.5-26.7,21.8H839.2z"/>
		<path class="st0" d="M620.3,62.8c-14.1,0-26.7,4.6-36.4,12.6v-10h-32.1v185.8h33.3V181c10,7.7,20.8,11.3,33.3,11.3
			c18.5,0,36.1-8.2,47.2-21c9.7-11.3,15.6-26.7,15.6-43.6C681.3,91,654.1,62.8,620.3,62.8z M616.2,162c-20.7,0-34.3-14.3-34.3-34.2
			c0-20,13.6-34.2,34.3-34.2c17.7,0,32,15.3,32,34.2S633.9,162,616.2,162z"/>
	</g>
	<g>
		<g>
			<linearGradient id="SVGID_1_" gradientUnits="userSpaceOnUse" x1="55.3352" y1="47.1902" x2="202.8302" y2="194.6851">
				<stop  offset="0" style="stop-color:#00AAE4"/>
				<stop  offset="1" style="stop-color:#006097"/>
			</linearGradient>
			<path class="st1" d="M174,144.4c-7.5-4.3-16-5.6-24.4-5.9c-7-0.2-17.5-4.8-17.5-17.6c0-9.5,7.7-17.2,17.6-17.6
				c8.4-0.3,16.9-1.6,24.4-5.9c13.8-7.9,22.2-22.6,22.2-38.5c0-15.9-8.5-30.6-22.2-38.5c-13.8-7.9-30.7-7.9-44.4,0
				c-13.8,7.9-22.2,22.6-22.2,38.5c0,8.6,3.1,16.5,7,23.9c3.3,6.2,4.9,17.7-6.3,24.2c-8.4,4.8-18.9,1.8-24.1-6.6
				c-4.4-7.1-9.7-13.7-17.2-18c-13.8-7.9-30.7-7.9-44.4,0C8.5,90.4,0,105.1,0,120.9c0,15.9,8.5,30.6,22.2,38.5
				c13.8,7.9,30.7,7.9,44.4,0c7.5-4.3,12.8-10.9,17.2-18c3.6-5.8,12.7-13.2,24.1-6.6c8.4,4.8,11,15.4,6.3,24.2
				c-3.9,7.3-7,15.3-7,23.9c0,15.9,8.5,30.6,22.2,38.5c13.8,7.9,30.7,7.9,44.4,0c13.8-7.9,22.2-22.6,22.2-38.5
				C196.2,167,187.7,152.3,174,144.4z"/>
		</g>
	</g>
</g>
</svg>
