<?xml version="1.0" encoding="utf-8"?>
<!-- Generator: Adobe Illustrator 19.2.1, SVG Export Plug-In . SVG Version: 6.00 Build 0)  -->
<svg version="1.1" id="Layer_1" xmlns="http://www.w3.org/2000/svg" xmlns:xlink="http://www.w3.org/1999/xlink" x="0px" y="0px"
	 viewBox="0 0 174.9 26.8" style="enable-background:new 0 0 174.9 26.8;" xml:space="preserve">
<style type="text/css">
	.st0{fill:#034EA2;}
</style>
<path class="st0" d="M6.6,7.2c-0.1-0.5-0.1-1,0-1.3c0.2-0.8,0.7-1.7,2.3-1.7c1.5,0,2.3,0.9,2.3,2.3c0,0.5,0,1.5,0,1.5h6.2V6.3
	C17.5,0.9,12.6,0,9,0C4.6,0,1,1.5,0.3,5.6c-0.2,1.1-0.2,2.1,0,3.4c1.1,5.1,10,6.6,11.3,9.8c0.2,0.6,0.2,1.4,0,1.8
	c-0.2,0.8-0.8,1.7-2.4,1.7c-1.6,0-2.5-0.9-2.5-2.3l0-2.4H0v1.9c0,5.6,4.4,7.3,9.1,7.3c4.5,0,8.2-1.5,8.8-5.7c0.3-2.2,0.1-3.6,0-4.1
	C16.8,11.7,7.4,10.2,6.6,7.2z M88,7.3c-0.1-0.5-0.1-1,0-1.3c0.2-0.8,0.7-1.7,2.3-1.7c1.4,0,2.3,0.9,2.3,2.3c0,0.5,0,1.5,0,1.5h6.2
	V6.4c0-5.4-4.8-6.2-8.3-6.2c-4.4,0-8,1.5-8.7,5.5c-0.2,1.1-0.2,2.1,0.1,3.3c1.1,5.1,9.9,6.5,11.2,9.7c0.2,0.6,0.2,1.4,0,1.8
	c-0.2,0.8-0.8,1.7-2.4,1.7C89,22.2,88,21.3,88,20l0-2.4h-6.6v1.9c0,5.5,4.3,7.2,9,7.2c4.5,0,8.2-1.5,8.7-5.7c0.3-2.1,0.1-3.5,0-4.1
	C98.1,11.8,88.7,10.2,88,7.3z M144.8,20.9l-5.9-20.1h-9.3v24.7h6.1l-0.4-20.8l6.3,20.8h8.9V0.8h-6.2L144.8,20.9z M26.8,0.8l-4.6,25
	h6.8l3.5-23.2l3.4,23.2h6.7l-4.6-25H26.8z M64.6,0.8l-3.2,19.5L58.2,0.8H48l-0.5,25h6.3l0.2-23.2l4.3,23.2h6.3l4.3-23.2L69,25.8h6.3
	l-0.6-25H64.6z M122.7,0.8h-6.3v18.5c0,0.3,0,0.7-0.1,1c-0.1,0.6-0.7,1.8-2.4,1.8c-1.7,0-2.3-1.2-2.4-1.8c-0.1-0.3-0.1-0.6-0.1-1
	V0.8h-6.3v17.9c0,0.5,0,1.4,0.1,1.7c0.4,4.7,4.1,6.2,8.7,6.2c4.6,0,8.3-1.5,8.7-6.2c0-0.2,0.1-1.2,0.1-1.7V0.8z M166.1,11.8v3.6h2.6
	V19c0,0.3,0,0.7-0.1,1c-0.1,0.7-0.7,1.8-2.6,1.8c-1.8,0-2.4-1.1-2.5-1.8c0-0.3-0.1-0.6-0.1-1V7.6c0-0.4,0-0.8,0.1-1.2
	c0.1-0.6,0.7-1.8,2.5-1.8c1.9,0,2.4,1.3,2.5,1.8c0.1,0.4,0.1,1,0.1,1v1.4h6.3V8c0,0,0-0.9,0-1.7c-0.5-4.7-4.3-6.2-8.8-6.2
	c-4.4,0-8.2,1.5-8.8,6.2c0,0.4-0.1,1.2-0.1,1.7v10.5c0,0.5,0,0.8,0.1,1.6c0.4,4.6,4.4,6.2,8.8,6.2c4.5,0,8.4-1.6,8.8-6.2
	c0.1-0.8,0.1-1.2,0.1-1.6v-6.7H166.1z"/>
</svg>
