<?xml version="1.0" encoding="utf-8"?>
<!-- Generator: Adobe Illustrator 19.2.1, SVG Export Plug-In . SVG Version: 6.00 Build 0)  -->
<svg version="1.1" id="Layer_1" xmlns="http://www.w3.org/2000/svg" xmlns:xlink="http://www.w3.org/1999/xlink" x="0px" y="0px"
	 viewBox="0 0 324 45.2" style="enable-background:new 0 0 324 45.2;" xml:space="preserve">
<style type="text/css">
	.st0{fill:#E2231A;}
	.st1{fill:#474C55;}
</style>
<g>
	<g>
		<path class="st0" d="M5.5,29.1c-1.3-3.3-1.2-6.5-1.2-6.5c0-10.1,8.2-18.3,18.3-18.3c0.9,0,1.7,0.1,2.6,0.2l-2.1,2.1
			c-0.2,0-0.4,0-0.6,0c-8.8,0-16,7.2-16,16c0,0,0,2.2,0.6,4.4h14L15.3,38l14.2-14.3H10.2L31.9,2c-2.8-1.3-6-2-9.3-2
			C10.1,0,0,10.1,0,22.6c0,8.1,4.3,15.3,10.8,19.3l6.7-12.7L5.5,29.1z"/>
		<path class="st0" d="M34.4,3.3L27.6,16h12c0,0,1.2,2.8,1.2,6.5c0,10.1-8.2,18.3-18.3,18.3c-0.9,0-1.8-0.1-2.7-0.2l2-2.1
			c0.2,0,0.4,0,0.6,0c8.8,0,16-7.2,16-16c0,0,0-2.3-0.6-4.4H24l5.9-11.1L15.4,21.5h19.4L13.3,43.2c2.8,1.3,6,2,9.3,2
			C35,45.2,45.2,35,45.2,22.6C45.2,14.4,40.8,7.3,34.4,3.3z"/>
	</g>
	<path class="st1" d="M56.4,36.5l1.9-2.8c0.4-0.7,1.1-0.5,1.5-0.2c1.2,1,3.1,2.6,6.2,2.6c2.2,0,4.4-1.7,4.4-4.2
		c0-2.2-1.5-3.6-4.3-5.5c-3.3-2.1-7.2-5-7.2-10S62.5,6,70.3,6c4.6,0,8,2.4,8.9,3.2c0.6,0.6,0.6,1.3,0.1,2L77.3,14
		c-0.4,0.6-1,0.6-1.7,0.1c-1.5-1.2-3.1-2.2-5.6-2.2c-2.5,0-4.2,1.9-4.2,3.9c0,2,1.3,3,4.3,5c3.3,2.2,7.7,4.9,7.7,10.4
		c0,5.8-4.5,10.7-11.9,10.7c-4.7,0-7.9-2.4-9.5-3.9C56.1,37.7,55.8,37.3,56.4,36.5z"/>
	<path class="st1" d="M80.9,40.1L99.6,6.6c0.2-0.3,0.4-0.5,0.8-0.5h0.4c0.3,0,0.6,0.2,0.7,0.5l9.2,33.5c0.2,0.6-0.2,1.3-0.9,1.3
		h-4.3c-0.7,0-1.1-0.2-1.3-1l-1.2-5.5H90.6l-2.9,5.5c-0.2,0.5-0.8,1-1.6,1h-4.6C80.8,41.4,80.5,40.8,80.9,40.1z M101.4,29.5L99,18.6
		h-0.1l-5.4,10.9H101.4z"/>
	<path class="st1" d="M120.4,7.5c0-0.5,0.5-0.9,1-0.9h4.9c0.5,0,0.8,0.4,0.7,0.9l-3,21c-0.1,0.5-0.1,1.1-0.1,1.6
		c0,3.3,1.7,5.3,5.1,5.3c4.1,0,6.4-2.6,7-6.8l3-21c0-0.5,0.5-0.9,1-0.9h4.9c0.4,0,0.8,0.4,0.7,0.9l-3,21.3
		c-1,7.6-6.3,13.1-14.1,13.1c-6.7,0-11.4-4.6-11.4-11.1c0-0.6,0-1.3,0.1-2L120.4,7.5z"/>
	<path class="st1" d="M169.7,6c4.5,0,8,2,10.4,4.7c0.3,0.4,0.2,1-0.2,1.4l-2.7,2.6c-0.5,0.5-1.2,0.4-1.6,0c-1.3-1.2-3.4-2.5-6.2-2.5
		c-6,0-11.2,6.2-11.2,13.3c0,5.3,2.8,9.8,7.6,9.8c2.9,0,5.1-1.4,6.8-2.9c0.6-0.5,1.2-0.4,1.6,0l2.6,3.2c0.2,0.3,0.1,1-0.2,1.3
		c-3.5,3.3-7.3,4.8-11.3,4.8c-8.6,0-14.2-6.9-14.2-15.5C151.1,14.7,159.4,6,169.7,6z"/>
	<path class="st1" d="M189.4,7.5c0-0.5,0.5-0.9,0.9-0.9h18.4c0.5,0,0.8,0.4,0.7,0.9l-0.6,4.1c0,0.5-0.5,0.9-1,0.9h-12.8l-1.1,8.2
		h10.6c0.4,0,0.8,0.4,0.7,0.9l-0.6,4.1c-0.1,0.5-0.5,0.9-1,0.9h-10.6l-1.2,8.7h12.8c0.5,0,0.7,0.4,0.7,0.9l-0.5,4.1
		c0,0.5-0.5,0.9-1,0.9h-18.4c-0.5,0-0.8-0.4-0.7-0.9L189.4,7.5z"/>
	<path class="st0" d="M221.4,7.5c0.1-0.5,0.5-0.9,1-0.9h2.1c0.4,0,0.8,0.4,0.7,0.9L221,38.1h12.7c0.4,0,0.7,0.4,0.7,0.9l-0.2,1.4
		c-0.1,0.5-0.5,0.9-1,0.9h-15.6c-0.5,0-0.8-0.4-0.7-0.9L221.4,7.5z"/>
	<path class="st0" d="M238.5,40.1l18.4-33.5c0.1-0.3,0.4-0.5,0.8-0.5h0.4c0.3,0,0.6,0.2,0.7,0.5l8.9,33.5c0.1,0.6-0.3,1.3-0.9,1.3
		h-2.1c-0.4,0-0.7-0.3-0.7-0.5l-2-8.2h-15.5l-4.2,8.2c-0.1,0.2-0.4,0.5-0.9,0.5h-2.1C238.4,41.4,238.1,40.8,238.5,40.1z M261,29.6
		L257,13.2h-0.3l-8.5,16.3H261z"/>
	<path class="st0" d="M291.8,23.9c1.9,1,4.2,3.1,4.2,6.8c0,6.1-4.3,10.8-11.2,10.8h-10.3c-0.5,0-0.8-0.4-0.7-0.9l4.6-33
		c0.1-0.5,0.5-0.9,1-0.9h9.9c4.9,0,8,3.6,8,7.9c0,4.8-2.6,7.8-5.5,9.3V23.9z M285.5,38.1c3.4,0,6.3-3.2,6.3-7.1
		c0-3.1-2.3-5.4-5.3-5.4h-7l-1.7,12.5H285.5z M287,22.2c3.7,0,6.1-2.9,6.1-7.3c0-2.9-1.5-4.9-4.4-4.9h-6.9l-1.7,12.2H287z"/>
	<path class="st0" d="M302.2,36.2l0.8-0.8c0.6-0.6,1-0.8,1.6-0.2c1.5,1.3,3.2,3.5,7.4,3.5c3.3,0,6.3-2.2,6.3-6c0-3.1-2.3-5-6.5-7.4
		c-4-2.3-6.7-4.5-6.7-9.1c0-4.2,2.6-10.1,10.8-10.1c3.6,0,6.3,1.4,7.7,2.5c0.2,0.2,0.7,0.7,0,1.7l-0.5,0.8c-0.5,0.7-1,0.9-1.6,0.4
		c-1.6-1.1-3.5-2.1-5.9-2.1c-4.3,0-6.7,3.4-6.7,6.3c0,2.8,1.9,4.6,5,6.3c4.8,2.6,8.4,5,8.4,10.2c0,5.5-4,9.8-10.9,9.8
		c-5,0-7.9-2.8-9.3-4.3C301.7,37.3,301.5,36.8,302.2,36.2z"/>
</g>
</svg>
