<?xml version="1.0" encoding="utf-8"?>
<!-- Generator: Adobe Illustrator 19.2.1, SVG Export Plug-In . SVG Version: 6.00 Build 0)  -->
<svg version="1.1" id="Layer_1" xmlns="http://www.w3.org/2000/svg" xmlns:xlink="http://www.w3.org/1999/xlink" x="0px" y="0px"
	 viewBox="0 0 169.9 76.9" style="enable-background:new 0 0 169.9 76.9;" xml:space="preserve">
<style type="text/css">
	.st0{fill:#303C42;}
	.st1{fill:#A00C30;}
	.st2{fill:#7F1518;}
</style>
<g>
	<g>
		<path class="st0" d="M64.1,29c1.9,1.5,4.2,2.3,6.3,2.3c2.1,0,3.4-0.7,3.4-2.3c0-1.7-1.2-2.3-3.9-3c-4.3-1-6.1-2.7-6.1-6.3
			c0-4.2,3.2-6.3,7.4-6.3c2.3,0,4.2,0.5,5.9,1.6v4.3c-1.8-1.3-3.6-2.1-5.8-2.1c-2,0-3.1,1-3.1,2.3c0,1.4,0.9,2.1,3.3,2.7
			c4.7,1,6.8,2.8,6.8,6.6c0,4.4-3.3,6.3-7.8,6.3c-2.4,0-4.9-0.7-6.4-1.7V29z"/>
		<path class="st0" d="M87.5,25.2L87.5,25.2c0.3,3.9,3.5,5.9,6.8,5.9c2.9,0,5-0.7,7.1-2v4.1c-1.9,1.3-4.7,2-7.4,2
			c-6.6,0-11-4.2-11-10.8c0-6.7,4.4-11.2,10.2-11.2c6.1,0,9,3.9,9,9.7v2.4H87.5z M97.8,22.1C97.7,18.8,96.1,17,93,17
			c-2.7,0-4.7,1.9-5.3,5.1H97.8z"/>
		<path class="st0" d="M107.8,14.9c3-1.1,6.6-1.8,9.7-1.8c5.4,0,8.8,2,8.8,8v13.6h-4.7V21.5c0-3-1.9-4.1-4.5-4.1
			c-1.7,0-3.3,0.2-4.6,0.6v16.7h-4.7V14.9z"/>
		<path class="st0" d="M132,28.9c2,1.5,4.3,2.4,6.4,2.4c2.1,0,3.5-0.7,3.5-2.4c0-1.7-1.2-2.3-3.9-3c-4.4-1-6.2-2.8-6.2-6.4
			c0-4.3,3.2-6.4,7.5-6.4c2.4,0,4.3,0.5,6,1.6V19c-1.9-1.3-3.7-2.1-5.9-2.1c-2,0-3.1,1-3.1,2.4c0,1.4,0.9,2.1,3.3,2.8
			c4.8,1,6.9,2.9,6.9,6.7c0,4.4-3.4,6.4-7.9,6.4c-2.5,0-4.9-0.7-6.5-1.7V28.9z"/>
		<path class="st0" d="M155.3,25.2L155.3,25.2c0.3,3.9,3.5,5.9,6.8,5.9c2.9,0,5-0.7,7.1-2v4.1c-1.9,1.3-4.7,2-7.4,2
			c-6.6,0-11-4.2-11-10.8c0-6.7,4.4-11.2,10.2-11.2c6.1,0,9,3.9,9,9.7v2.4H155.3z M165.5,22.1c-0.1-3.3-1.7-5.1-4.8-5.1
			c-2.7,0-4.7,1.9-5.3,5.1H165.5z"/>
		<path class="st0" d="M82.5,54L82.5,54c0.3,3.9,3.5,5.9,6.8,5.9c2.9,0,5-0.7,7-2V62c-1.9,1.3-4.7,2-7.4,2c-6.5,0-11-4.2-11-10.8
			C78,46.4,82.3,42,88.1,42c6.1,0,9,3.9,9,9.7V54H82.5z M92.7,51c-0.1-3.3-1.7-5.1-4.7-5.1c-2.7,0-4.7,1.9-5.3,5.1H92.7z"/>
		<path class="st0" d="M117.1,48.1c-1.8-1.4-3.6-2-5.5-2c-3.8,0-6.7,2.4-6.7,6.9c0,4.2,2.8,6.9,6.9,6.9c2.1,0,3.9-0.7,5.6-1.9v4.5
			c-1.9,1.1-4,1.6-6.2,1.6c-6.4,0-11-4.2-11-11c0-6.8,4.9-11,11-11c2.3,0,4.1,0.5,6,1.6V48.1z"/>
		<path class="st0" d="M121,43.8c2.9-1.1,6.5-1.8,9.6-1.8c5.3,0,8.8,2,8.8,8v13.6h-4.6V50.4c0-3-1.9-4.1-4.5-4.1
			c-1.7,0-3.3,0.2-4.5,0.6v16.7H121V43.8z"/>
		<path class="st0" d="M148.4,63.5h-4.7V42.4h4.7V63.5z"/>
		<path class="st0" d="M168.9,48.1c-1.8-1.4-3.6-2-5.5-2c-3.8,0-6.7,2.4-6.7,6.9c0,4.2,2.8,6.9,6.9,6.9c2.1,0,3.9-0.7,5.6-1.9v4.5
			c-1.9,1.1-4,1.6-6.2,1.6c-6.4,0-11-4.2-11-11c0-6.8,4.9-11,11-11c2.3,0,4.1,0.5,6,1.6V48.1z"/>
		<path class="st0" d="M71.7,59.8c-1.8,0-2.9-0.9-2.9-3.4V45.7h6v-3.9h-6v-2.4h-4.6l0,18.1c0,4.8,2.9,6.5,6.3,6.5
			c2,0,3.7-0.4,5.1-1.1v-4.2C74.2,59.4,73,59.8,71.7,59.8z"/>
	</g>
	<path class="st1" d="M40.2,45.8c-1.4-0.3-2.5-0.1-2.8-0.1c-1.4,0-3-0.3-4.4-1.7c-1.2-1.2-1.6-2.6-1.6-3.9c0-0.7,0.1-1.1,0.1-1.6
		c0-0.5-0.1-1.1-0.2-1.6c-0.2-1-0.6-2-1.2-2.8c-3.3-4.8-10.2-4.8-13.5,0c-1.8,2.7-1.8,6.3,0,9c1.3,1.9,3.1,3,5.1,3.4
		c1,0.2,2,0.2,2.6,0.1c1.5-0.1,3.1,0.2,4.5,1.6c1.5,1.5,1.7,3.3,1.6,4.8c0,0.8,0,1.7,0.2,2.3c0.2,1,0.6,1.9,1.2,2.8
		C35,63,42,63,45.3,58.2c1.8-2.7,1.8-6.3,0-9C44,47.3,42.2,46.2,40.2,45.8z"/>
	<path class="st1" d="M15.4,6.4c-0.3,1.4-0.1,2.5-0.1,2.8c0,1.4-0.3,3-1.7,4.4c-1.2,1.2-2.6,1.6-3.9,1.6c-0.7,0-1.1-0.1-1.6-0.1
		c-0.5,0-1.1,0.1-1.6,0.2c-1,0.2-2,0.6-2.8,1.2c-4.8,3.3-4.8,10.2,0,13.5c2.7,1.8,6.3,1.8,9,0c1.9-1.3,3-3.1,3.4-5.1
		c0.2-1,0.2-2,0.1-2.6c-0.1-1.5,0.2-3.1,1.6-4.5c1.5-1.5,3.3-1.7,4.8-1.6c0.8,0,1.7,0,2.3-0.2c1-0.2,1.9-0.6,2.8-1.2
		c4.8-3.3,4.8-10.2,0-13.5c-2.7-1.8-6.3-1.8-9,0C17,2.6,15.8,4.4,15.4,6.4z"/>
	<path class="st2" d="M18.8,14.9c0.1,0.1,0.2,0.2,0.4,0.2C19.1,15.1,18.9,15,18.8,14.9z"/>
	<path class="st1" d="M16.5,64.3c3.3-4.8,10.2-4.8,13.5,0c1.8,2.7,1.8,6.3,0,9c-3.3,4.8-10.2,4.8-13.5,0
		C14.7,70.6,14.7,67,16.5,64.3z"/>
	<path class="st0" d="M1.4,49.2c3.3-4.8,10.2-4.8,13.5,0c1.8,2.7,1.8,6.3,0,9C11.6,63,4.7,63,1.4,58.2C-0.5,55.5-0.5,51.9,1.4,49.2z
		"/>
	<path class="st0" d="M31.8,18.8C35,14,42,14,45.3,18.8c1.8,2.7,1.8,6.3,0,9c-3.3,4.8-10.2,4.8-13.5,0
		C29.9,25.1,29.9,21.5,31.8,18.8z"/>
</g>
</svg>
