<?xml version="1.0" encoding="utf-8"?>
<!-- Generator: Adobe Illustrator 19.2.1, SVG Export Plug-In . SVG Version: 6.00 Build 0)  -->
<svg version="1.1" id="Layer_1" xmlns="http://www.w3.org/2000/svg" xmlns:xlink="http://www.w3.org/1999/xlink" x="0px" y="0px"
	 viewBox="0 0 766.611 144.065" enable-background="new 0 0 766.611 144.065" xml:space="preserve">
<g>
	<path fill="#141414" d="M263.313,39.483l-7.964,16.522c-8.797-5.111-19.851-8.677-26.626-8.677c-5.468,0-9.153,2.02-9.153,6.061
		c0,14.384,43.98,6.182,43.98,36.255c0,16.642-14.739,25.437-33.283,25.437c-13.908,0-28.171-5.229-38.037-13.313l8.202-16.285
		c8.558,7.489,21.396,12.481,30.073,12.481c6.657,0,10.817-2.495,10.817-7.25c0-14.74-43.981-5.943-43.981-35.423
		c0-15.333,13.195-25.08,33.164-25.08C242.511,30.211,254.755,33.895,263.313,39.483z"/>
	<path fill="#141414" d="M314.55,110.922c-4.636,2.734-10.936,4.397-17.117,4.397c-12.363,0-21.278-7.013-21.278-20.326v-28.29
		h-8.915V53.271h8.915V35.44h20.445v17.711h16.76v13.551h-16.76v25.081c0,4.993,2.139,7.132,5.943,7.013
		c2.139,0,4.873-0.832,7.964-2.139L314.55,110.922z"/>
	<path fill="#141414" d="M379.811,72.527v41.841h-20.088v-7.37c-4.16,5.468-10.936,8.32-19.613,8.32
		c-13.669,0-21.99-8.32-21.99-20.088c0-12.124,8.677-19.256,24.605-19.374h16.879v-0.952c0-6.3-4.16-10.104-12.481-10.104
		c-5.349,0-12.362,1.902-19.137,5.35L322.16,56.6c9.985-4.636,19.019-7.252,29.717-7.252
		C369.469,49.348,379.692,58.025,379.811,72.527z M359.604,92.616V86.91h-12.957c-6.181,0-9.272,2.139-9.272,6.895
		c0,4.636,3.329,7.607,9.034,7.607C352.828,101.412,358.296,97.846,359.604,92.616z"/>
	<path fill="#141414" d="M449.114,63.97l-14.74,8.915c-2.972-4.161-7.369-6.657-12.956-6.657c-7.964,0-13.432,6.538-13.432,16.167
		c0,9.865,5.467,16.285,13.432,16.285c5.824,0,10.341-2.378,13.075-7.252l14.977,8.797c-5.23,9.391-15.572,14.858-29.123,14.858
		c-19.732,0-33.045-13.074-33.045-32.569c0-19.731,13.432-32.926,33.283-32.926C433.305,49.585,443.527,54.816,449.114,63.97z"/>
	<path fill="#141414" d="M477.036,96.894v17.474h-20.564V26.17h20.564v46.595l21.158-22.465h23.297l-23.535,24.605l24.249,39.464
		h-24.368L483.93,89.644L477.036,96.894z"/>
	<path fill="#141414" d="M562.844,31.161c20.564,0,32.45,10.223,32.45,27.933c0,18.425-11.886,29.004-32.45,29.004h-21.753v26.269
		h-9.509V31.161H562.844z M541.092,78.946h21.396c14.977,0,23.654-6.656,23.654-19.612c0-12.6-8.677-19.019-23.654-19.019h-21.396
		V78.946z"/>
	<path fill="#141414" d="M644.188,104.739c-4.993,6.775-12.957,10.104-22.942,10.104c-12.956,0-21.277-8.32-21.277-19.137
		c0-10.936,8.678-17.831,23.417-17.949h20.564v-3.686c0-9.152-5.706-14.62-16.76-14.62c-6.894,0-13.313,2.615-19.851,7.132
		l-3.923-6.775c8.083-5.35,14.858-8.44,25.556-8.44c15.452,0,24.011,8.202,24.13,21.633l0.119,41.366h-9.034V104.739z
		 M644.069,92.735v-7.489h-19.494c-10.46,0-15.928,3.209-15.928,10.104c0,6.895,5.586,11.411,14.383,11.411
		C633.609,106.761,641.692,101.412,644.069,92.735z"/>
	<path fill="#141414" d="M699.057,110.089c-4.398,2.972-9.152,4.636-14.145,4.754c-9.152,0-15.928-5.468-15.928-17.829V61.236
		h-9.034v-7.489h9.034V37.224h9.152v16.522l19.851-0.118v7.607h-19.851V95.35c0,7.607,2.972,10.461,8.321,10.461
		c3.21,0,6.538-1.071,9.985-3.211L699.057,110.089z"/>
	<path fill="#141414" d="M766.611,75.736v38.632h-9.272V78.233c0-11.054-6.656-17.592-17.711-17.592
		c-13.313,0.118-21.158,9.509-21.158,22.94v30.787h-9.272V26.17h9.272v39.582c4.279-9.747,12.837-14.265,24.368-14.383
		C757.815,51.369,766.611,60.641,766.611,75.736z"/>
</g>
<path fill="#00AFEC" d="M145.405,38.824H59.056c-11.114,0-20.159,9.045-20.159,20.159c0,11.118,9.045,20.162,20.159,20.162h44.674
	c3.278,0,5.936,2.658,5.936,5.939c0,3.281-2.658,5.939-5.936,5.939H59.056c-17.664,0-32.03-14.376-32.03-32.04
	s14.367-32.03,32.03-32.03h79.495L126.3,5.733C124.252,2.185,120.467,0,116.37,0H46.434c-4.096,0-7.882,2.185-9.93,5.733
	L1.536,66.299c-2.048,3.548-2.048,7.919,0,11.467l15.863,27.474h86.347c11.118,0,20.162-9.042,20.162-20.156
	c0-11.121-9.045-20.166-20.162-20.166H59.075c-3.278,0-5.936-2.658-5.936-5.936s2.658-5.936,5.936-5.936h44.671
	c17.664,0,32.034,14.37,32.034,32.037c0,17.664-14.37,32.034-32.034,32.034h-79.49l12.248,21.214
	c2.048,3.548,5.834,5.733,9.93,5.733h69.936c4.097,0,7.882-2.185,9.93-5.733l34.968-60.566c2.048-3.548,2.048-7.919,0-11.467
	L145.405,38.824z"/>
</svg>
