<?xml version="1.0" encoding="utf-8"?>
<!-- Generator: Adobe Illustrator 19.2.1, SVG Export Plug-In . SVG Version: 6.00 Build 0)  -->
<svg version="1.1" id="Layer_1" xmlns="http://www.w3.org/2000/svg" xmlns:xlink="http://www.w3.org/1999/xlink" x="0px" y="0px"
	 viewBox="0 0 486.299 114.976" enable-background="new 0 0 486.299 114.976" xml:space="preserve">
<g>
	<path fill="#620037" d="M254.538,37.043c0,4.668-3.871,8.004-8.852,8.004c-4.48,0-7.877-3.6-8.567-8.396l-6.938,1.781
		c1.652,8.005,7.57,13.132,15.633,13.132c9.049,0,16.137-6.89,16.137-15.74c0-14.899-22.226-14.155-22.226-23.149
		c0-3.795,2.857-6.043,6.924-6.043c3.393,0,5.758,1.562,7.727,4.953l5.732-3.637C257.362,2.896,252.503,0,246.778,0
		c-8.248,0-14.467,5.661-14.467,13.169C232.311,28.493,254.538,26.466,254.538,37.043z"/>
	<path fill="#620037" d="M127.39,100.454c0,4.669-3.871,8.005-8.85,8.005c-4.481,0-7.878-3.6-8.567-8.396l-6.937,1.78
		c1.651,8.005,7.57,13.132,15.631,13.132c9.049,0,16.137-6.89,16.137-15.74c0-14.9-22.226-14.155-22.226-23.149
		c0-3.795,2.857-6.043,6.924-6.043c3.393,0,5.758,1.562,7.726,4.953l5.732-3.637c-2.746-5.051-7.605-7.947-13.33-7.947
		c-8.248,0-14.467,5.661-14.467,13.169C105.163,91.905,127.39,89.878,127.39,100.454z"/>
	<path fill="#620037" d="M330.397,100.454c0,4.669-3.871,8.005-8.852,8.005c-4.48,0-7.877-3.6-8.566-8.396l-6.938,1.78
		c1.652,8.005,7.57,13.132,15.633,13.132c9.049,0,16.137-6.89,16.137-15.74c0-14.9-22.227-14.155-22.227-23.149
		c0-3.795,2.857-6.043,6.924-6.043c3.393,0,5.758,1.562,7.726,4.953l5.733-3.637c-2.746-5.051-7.605-7.947-13.33-7.947
		c-8.248,0-14.467,5.661-14.467,13.169C308.171,91.905,330.397,89.878,330.397,100.454z"/>
	<path fill="#620037" d="M195.903,0.936v49.692h7.5V30.287h1.205l14.883,20.341h9.459l-16.066-21.086
		c6.686-1.651,11.691-6.104,11.691-13.851c0-10.465-8.055-14.756-18.42-14.756H195.903z M203.403,23.239V7.982h1.896
		c4.889,0,11.598,0.587,11.598,7.629c0,7.041-6.709,7.628-11.598,7.628H203.403z"/>
	<path fill="#620037" d="M416.526,64.349v49.692h7.5V93.7h1.203l14.885,20.341h9.457l-16.066-21.087
		c6.688-1.65,11.693-6.102,11.693-13.85c0-10.465-8.055-14.756-18.42-14.756H416.526z M424.026,86.652V71.396h1.895
		c4.891,0,11.598,0.587,11.598,7.629c0,7.04-6.707,7.628-11.598,7.628H424.026z"/>
	<polygon fill="#620037" points="407.989,71.396 407.989,64.348 380.567,64.348 380.567,114.041 407.989,114.041 407.989,106.992 
		388.067,106.992 388.067,92.718 404.222,92.718 404.222,85.671 388.067,85.671 388.067,71.396 	"/>
	<polygon fill="#620037" points="97.966,71.396 97.966,64.348 70.544,64.348 70.544,114.041 97.966,114.041 97.966,106.992 
		78.044,106.992 78.044,92.718 94.198,92.718 94.198,85.671 78.044,85.671 78.044,71.396 	"/>
	<polygon fill="#620037" points="188.313,7.982 188.313,0.936 160.891,0.936 160.891,50.628 188.313,50.628 188.313,43.581 
		168.389,43.581 168.389,29.307 184.544,29.307 184.544,22.258 168.389,22.258 168.389,7.982 	"/>
	<polygon fill="#620037" points="448.487,7.982 448.487,0.936 421.065,0.936 421.065,50.628 428.565,50.628 428.565,29.307 
		444.718,29.307 444.718,22.258 428.565,22.258 428.565,7.982 	"/>
	<rect x="238.808" y="64.348" fill="#620037" width="7.5" height="49.693"/>
	<rect x="269.991" y="0.936" fill="#620037" width="7.5" height="49.692"/>
	<rect x="99.01" y="0.936" fill="#620037" width="7.499" height="49.692"/>
	<polygon fill="#620037" points="374.144,64.348 340.72,64.348 340.72,71.396 353.683,71.396 353.683,114.041 361.183,114.041 
		361.183,71.396 374.144,71.396 	"/>
	<polygon fill="#620037" points="172.262,64.348 138.837,64.348 138.837,71.396 151.8,71.396 151.8,114.041 159.299,114.041 
		159.299,71.396 172.262,71.396 	"/>
	<path fill="#620037" d="M388.974,0c-14.24,0-25.781,11.543-25.781,25.781c0,14.239,11.541,25.782,25.781,25.782
		c14.238,0,25.781-11.543,25.781-25.782C414.755,11.543,403.212,0,388.974,0z M388.974,44.063c-10.098,0-18.281-8.186-18.281-18.282
		c0-10.096,8.184-18.281,18.281-18.281c10.096,0,18.281,8.186,18.281,18.281C407.255,35.878,399.069,44.063,388.974,44.063z"/>
	<polygon fill="#620037" points="201.956,114.976 216.256,85.586 222.243,114.041 229.848,114.041 219.293,63.413 218.09,63.413 
		201.354,100.257 184.618,63.413 183.414,63.413 172.86,114.041 180.465,114.041 186.454,85.586 200.752,114.976 	"/>
	<polygon fill="#620037" points="56.155,64.348 45.985,95.514 32.641,63.413 31.437,63.413 18.095,95.514 7.925,64.348 0,64.348 
		16.568,114.976 17.772,114.976 32.04,81.51 46.307,114.976 47.511,114.976 64.08,64.348 	"/>
	<polygon fill="#620037" points="291.378,64.348 291.378,97.239 259.413,63.413 258.21,63.413 258.21,114.041 265.71,114.041 
		265.71,81.005 297.675,114.976 298.878,114.976 298.878,64.348 	"/>
	<polygon fill="#620037" points="81.382,0.936 81.382,33.827 49.417,0 48.213,0 48.213,50.628 55.713,50.628 55.713,17.592 
		87.677,51.563 88.881,51.563 88.881,0.936 	"/>
	<path fill="#620037" d="M32.583,0.936v31.188c0,6.858-4.347,12.393-11.52,12.393c-7.173,0-11.518-5.535-11.518-12.393V0.936H2.046
		v31.188c0,11.056,8.184,19.407,19.018,19.407c10.834,0,19.02-8.352,19.02-19.407V0.936H32.583z"/>
	<polygon fill="#620037" points="134.68,51.563 156.924,0.936 148.798,0.936 134.183,34.034 119.967,0.936 111.841,0.936 
		133.475,51.563 	"/>
	<polygon fill="#620037" points="346.384,0.936 333.813,23.136 321.243,0.936 283.413,0.936 283.413,7.982 296.376,7.982 
		296.376,50.628 303.876,50.628 303.876,7.982 316.593,7.982 330.063,31.678 330.063,50.628 337.563,50.628 337.563,31.678 
		355.044,0.936 	"/>
</g>
<path fill="#620037" d="M459.321,78.343h5.616v7.242h-5.616V78.343z M468.315,78.343h5.613v7.242h-5.613V78.343z M477.308,78.343
	h5.615v7.242h-5.615V78.343z M459.321,67.718h5.616v7.248h-5.616V67.718z M468.315,67.718h5.613v7.248h-5.613V67.718z
	 M477.308,67.718h5.615v7.248h-5.615V67.718z M455.943,64.348v35.291l3.378-3.377v-7.293h5.616v5.569l1.688,1.688l1.69-1.688v-5.569
	h5.613v5.569l1.689,1.688l1.69-1.688v-5.569h5.615v7.293l3.376,3.377V64.348H455.943z"/>
</svg>
