<?xml version="1.0" encoding="utf-8"?>
<!-- Generator: Adobe Illustrator 19.2.1, SVG Export Plug-In . SVG Version: 6.00 Build 0)  -->
<svg version="1.1" id="Logo_White_1_" xmlns="http://www.w3.org/2000/svg" xmlns:xlink="http://www.w3.org/1999/xlink" x="0px"
	 y="0px" viewBox="0 0 4490.733 871.216" enable-background="new 0 0 4490.733 871.216" xml:space="preserve">
<g id="Text_1_">
	<g id="WebsiteSetup">
		<g>
			<path fill="#2492BF" d="M1229.465,629.3l-101.626-388.572h87.108l57.218,271.858h3.131l67.182-271.858h70.028l66.897,271.858
				h3.416l56.933-271.858h86.824L1524.95,629.3h-76.006l-70.028-262.179h-2.847L1305.756,629.3H1229.465z"/>
			<path fill="#2492BF" d="M1608.805,489.528v-26.475c0-90.524,56.364-142.049,136.071-142.049
				c83.123,0,135.217,56.08,135.217,143.757v29.89h-192.72v9.109c0,43.27,25.335,70.598,61.204,70.598
				c29.036,0,49.817-14.232,55.226-38.145h73.729c-6.263,48.108-45.547,98.494-129.524,98.494
				C1664.6,634.708,1608.805,583.468,1608.805,489.528z M1802.948,445.688v-0.568c0-37.292-22.773-65.474-57.503-65.474
				c-35.014,0-58.072,28.467-58.072,65.474v0.568H1802.948z"/>
			<path fill="#2492BF" d="M1993.556,582.329h-3.416V629.3h-79.138V220.232h80.276v150.874h3.416
				c13.095-28.467,46.401-48.393,86.824-48.393c68.32,0,114.152,49.247,114.152,141.765v26.189
				c0,90.809-44.978,142.334-114.437,142.334C2038.249,633.001,2008.074,613.358,1993.556,582.329z M2113.401,488.105v-20.496
				c0-53.518-24.481-81.415-59.211-81.415c-38.43,0-63.196,27.613-63.196,81.415v20.211c0,53.803,24.766,81.984,63.196,81.984
				C2089.205,569.804,2113.401,541.622,2113.401,488.105z"/>
			<path fill="#2492BF" d="M2340.161,321.004c72.021,0,117.283,35.299,117.283,92.802h-70.598
				c-1.992-18.219-13.949-38.146-48.393-38.146c-27.898,0-45.547,13.379-45.547,33.876c0,29.32,44.408,33.875,78.852,40.139
				c55.795,9.963,95.08,29.89,95.08,85.115c0,62.627-48.678,99.918-130.662,99.918c-79.992,0-125.539-37.291-125.539-91.094h77.715
				c2.846,21.351,21.635,36.153,52.094,36.153c33.307,0,48.963-16.226,48.963-34.729c0-28.182-37.008-31.883-74.867-39.568
				c-54.088-11.387-97.642-32.168-97.642-88.532C2216.9,349.187,2275.257,321.004,2340.161,321.004z"/>
			<path fill="#2492BF" d="M2536.747,209.984c24.482,0,44.693,16.511,44.693,40.992c0,24.766-20.211,41.277-44.693,41.277
				c-24.48,0-44.408-16.511-44.408-41.277C2492.339,226.495,2512.267,209.984,2536.747,209.984z M2496.894,326.413h79.992V629.3
				h-79.992V326.413z"/>
			<path fill="#2492BF" d="M2644.235,254.961h77.715v71.452h58.357v61.773h-58.357v143.473c0,29.035,12.811,38.144,42.984,38.144
				c6.549,0,13.096,0,16.512-0.568v58.926c-5.979,1.139-19.928,2.563-35.869,2.563c-76.006,0-103.049-25.051-103.049-87.393V388.186
				h-43.27v-61.773h44.977V254.961z"/>
			<path fill="#2492BF" d="M2797.271,489.528v-26.475c0-90.524,56.363-142.049,136.07-142.049
				c83.123,0,135.219,56.08,135.219,143.757v29.89h-192.721v9.109c0,43.27,25.336,70.598,61.203,70.598
				c29.037,0,49.816-14.232,55.227-38.145h73.729c-6.264,48.108-45.547,98.494-129.523,98.494
				C2853.065,634.708,2797.271,583.468,2797.271,489.528z M2991.413,445.688v-0.568c0-37.292-22.773-65.474-57.502-65.474
				c-35.014,0-58.072,28.467-58.072,65.474v0.568H2991.413z"/>
			<path fill="#065676" d="M3158.394,517.71c2.277,28.752,28.184,54.371,77.43,54.371c45.832,0,70.314-20.496,70.314-50.67
				c0-26.475-19.928-39.285-59.211-48.109l-58.357-13.379c-54.656-11.672-100.203-42.416-100.203-108.459
				c0-76.291,64.904-118.707,147.174-118.707c86.822,0,145.18,47.824,146.033,116.429h-76.859
				c-1.992-27.328-24.482-52.664-69.459-52.664c-39.854,0-64.619,18.788-64.619,48.678c0,22.489,18.219,37.576,52.947,44.693
				l58.926,13.095c56.934,12.241,105.043,39.854,105.043,110.452c0,76.291-59.496,123.261-155.713,123.261
				c-114.438,0-151.443-64.05-152.582-118.991L3158.394,517.71L3158.394,517.71z"/>
			<path fill="#065676" d="M3403.372,489.528v-26.475c0-90.524,56.365-142.049,136.072-142.049
				c83.123,0,135.217,56.08,135.217,143.757v29.89H3481.94v9.109c0,43.27,25.336,70.598,61.205,70.598
				c29.035,0,49.816-14.232,55.225-38.145h73.729c-6.262,48.108-45.547,98.494-129.523,98.494
				C3459.167,634.708,3403.372,583.468,3403.372,489.528z M3597.517,445.688v-0.568c0-37.292-22.773-65.474-57.504-65.474
				c-35.014,0-58.072,28.467-58.072,65.474v0.568H3597.517z"/>
			<path fill="#065676" d="M3729.198,254.961h77.715v71.452h58.355v61.773h-58.355v143.473c0,29.035,12.809,38.144,42.984,38.144
				c6.547,0,13.094,0,16.51-0.568v58.926c-5.977,1.139-19.926,2.563-35.867,2.563c-76.006,0-103.051-25.051-103.051-87.393V388.186
				h-43.27v-61.773h44.979V254.961z"/>
			<path fill="#065676" d="M4164.622,629.3h-77.998v-44.978h-3.701c-9.109,23.343-36.723,49.532-87.393,49.532
				c-61.488,0-102.766-36.152-102.766-107.604V326.413h80.275v178.771c0,48.394,27.328,61.203,54.941,61.203
				c31.598,0,56.648-20.78,56.648-62.057V326.413h79.992V629.3H4164.622z"/>
			<path fill="#065676" d="M4291.466,584.892h-3.416v144.611h-80.277v-403.09h79.139v45.547h3.416
				c14.803-29.605,45.547-49.247,86.822-49.247c67.182,0,113.584,50.386,113.584,142.333v25.336
				c0,91.379-45.832,142.619-114.438,142.619C4335.874,633.001,4305.983,613.643,4291.466,584.892z M4408.464,487.251v-19.642
				c0-52.664-22.773-81.7-59.496-81.7c-37.006,0-61.488,30.459-61.488,81.414v19.928c0,51.809,24.482,82.553,62.342,82.553
				C4384.552,569.804,4408.464,541.622,4408.464,487.251z"/>
		</g>
	</g>
</g>
<path fill="#065675" d="M856.101,90.095c0,2.333,0,4.667,0,7c-1.757,12.798-2.621,25.692-4.88,38.447
	c-5.071,28.631-9.635,57.351-14.427,86.03c-4.875,29.172-9.716,58.35-14.609,87.519c-5.222,31.135-10.407,62.275-15.598,93.414
	c-5.137,30.815-10.263,61.632-15.392,92.447c-5.183,31.143-10.359,62.285-15.583,93.42c-2.502,14.914-5.06,29.82-7.385,44.763
	c-0.789,5.07-2.857,8.807-7.241,11.825c-36.464,25.1-72.986,50.115-109.439,75.231c-37.688,25.966-75.442,51.835-113.126,77.806
	c-32.615,22.477-65.367,44.754-97.839,67.438c-2.876,2.009-5.736,3.999-9.283,4.669c-1.619,0.306-3.3,1.05-4.387-0.99
	c-0.692-1.549-0.996-3.171-0.996-4.849c-0.004-33.361-0.304-66.724,0.145-100.073c0.065-0.589,0.254-1.149,0.551-1.661
	c5.4-6.477,12.743-10.556,19.455-15.363c41.79-29.932,83.552-59.899,125.34-89.832c30.834-22.085,61.685-44.146,92.54-66.202
	c5.413-3.869,10.853-7.7,16.207-11.654c2.25-1.661,3.525-3.629,4.018-6.524c4.681-27.515,9.096-55.074,13.848-82.576
	c5.289-30.613,10.277-61.277,15.417-91.916c4.507-26.869,9.001-53.74,13.551-80.602c2.913-17.198,5.917-34.383,8.682-51.604
	c4.474-27.87,9.398-55.664,13.945-83.52c0.216-1.322,0.242-2.649,0.334-3.978c0.229-3.313-0.945-5.031-4.511-5.84
	c-21.235-4.818-42.412-9.896-63.716-14.37c-2.217-0.044-4.656-2.362-6.565,0.682c-1.357,15.429-4.3,30.613-6.453,45.908
	c-3.685,26.176-7.822,52.286-11.469,78.466c-0.077,0.563-0.262,1.092-0.517,1.593c-1.412,6.044-1.203,12.311-2.507,18.365
	c-0.077,0.528-0.256,1.026-0.496,1.499c-0.828,1.643-1.126,3.398-1.075,5.227c-0.059,0.784-0.102,1.57-0.264,2.345
	c-2.589,22.936-6.66,45.655-9.852,68.499c-4.62,33.061-9.777,66.041-14.527,99.082c-2.433,16.927-4.912,33.855-7.611,50.746
	c-0.655,4.097-2.398,7.05-5.701,9.466c-22.954,16.795-46.119,33.296-69.133,50.006c-17.229,12.51-34.547,24.896-51.767,37.419
	c-2.897,2.106-5.646,4.865-9.818,4.04c-2.092-0.855-2.258-2.692-2.325-4.564c-0.078-2.164-0.042-4.33-0.042-6.494
	c-0.001-164.87,0.001-329.739-0.02-494.608c0-3.14,0.463-6.344-0.811-9.36c-0.326-0.437-0.692-0.849-1.129-1.175
	c-14.688-3.881-29.372-7.758-44.106-11.438c-2.702-0.675-5.531-1.074-7.72-3.08c-1.737-1.628-1.968-3.687-1.967-5.938
	c0.017-29.624,0-59.249,0.036-88.873c0.002-2.152-0.101-4.353,1.217-6.264c1.666,0,3.333,0,5,0
	c16.709,1.713,33.075,5.348,49.454,8.884c40.804,8.81,81.677,17.297,122.513,25.957c34.815,7.384,69.639,14.733,104.465,22.067
	c23.269,4.899,46.522,9.88,69.788,14.794c23.919,5.053,47.832,10.13,71.772,15.079C852.501,87.374,854.498,88.271,856.101,90.095z"
	/>
<path fill="#00648D" d="M427.101,0.095c1.023,1.821,1.013,3.815,1.011,5.819c-0.025,30.084-0.011,60.167-0.139,90.249
	c-0.007,1.779,0.546,3.191,1.089,4.72c-0.253,0.489-0.637,0.83-1.149,1.028c-15.306,4.674-30.939,8.109-46.411,12.163
	c-2.072,0.543-4.279,0.8-5.341,3.083c-1.389,3.671-1.583,7.462-1.582,11.327c0.025,164.763,0.026,329.525-0.011,494.288
	c0,2.941,0.7,6.016-0.934,8.797c-4.133,3.12-6.933-0.382-9.672-2.332c-11.792-8.399-23.519-16.894-35.238-25.396
	c-28.961-21.013-58.028-41.877-87.01-62.861c-4.277-3.097-6.118-6.945-6.81-12.086c-2.53-18.773-5.475-37.491-8.241-56.232
	c-3.155-21.368-6.442-42.718-9.523-64.095c-2.774-19.244-5.682-38.468-8.508-57.702c-3.163-21.534-6.31-43.071-9.584-64.59
	c-4.698-30.881-9.102-61.807-13.807-92.688c-1.526-10.017-3.018-20.047-4.335-30.098c-0.733-5.593-1.665-6.264-7.085-5.05
	c-20.772,4.654-41.474,9.612-62.276,14.136c-6.467,1.407-6.676,1.929-5.615,8.433c5.514,33.789,11.332,67.527,16.978,101.294
	c7.865,47.042,15.608,94.107,23.5,141.145c8.304,49.491,16.68,98.972,24.878,148.481c0.541,3.269,1.921,5.772,4.73,7.82
	c18.824,13.728,37.896,27.11,56.794,40.732c34.695,25.009,69.563,49.777,104.267,74.775c27.951,20.133,56.106,39.984,84.028,60.16
	c2.862,2.068,5.534,4.215,6.966,7.555c0.039,35.766,0.077,71.53,0.115,107.295c0.379,0.225,0.493,0.423,0.342,0.594
	c-0.137,0.157-0.279,0.236-0.426,0.236c-0.334,0-0.667,0-1,0c-12.354-4.625-22.068-13.507-32.806-20.674
	c-19.785-13.205-39.228-26.927-58.832-40.408c-37.152-25.549-74.314-51.085-111.468-76.631
	c-42.912-29.506-85.77-59.092-128.773-88.464c-4.044-2.763-6.238-6.326-6.981-10.983c-4.241-26.575-8.821-53.096-13.201-79.648
	c-5.109-30.979-10.35-61.936-15.44-92.919c-4.9-29.832-9.961-59.637-14.827-89.476c-3.555-21.801-7.23-43.586-10.937-65.363
	c-4.347-25.543-8.518-51.115-12.782-76.672c-5.685-34.078-11.137-68.197-17.14-102.22c-1.791-10.147-1.707-20.471-3.814-30.542
	c0-2.333,0-4.667,0-7c1.503-1.638,3.27-2.622,5.529-3.093C57.728,76.159,109.763,65.019,161.834,54.05
	c36.29-7.645,72.571-15.331,108.855-23.004c37.911-8.017,75.857-15.867,113.723-24.095c12.818-2.785,25.738-4.877,38.689-6.856
	C424.434,0.095,425.767,0.095,427.101,0.095z"/>
<path fill="#FEFEFE" d="M374.128,114.155c16.521-5.116,33.411-8.836,50.122-13.233c1.249-0.329,2.727-1.781,3.967,0.144
	c0.539,2.301,0.378,4.643,0.378,6.97c0.007,215.767,0.007,431.533-0.001,647.3c0,2.327,0.176,4.669-0.357,6.971
	c-0.07,0.218-0.126,0.44-0.166,0.664c-46.736-33.425-93.481-66.838-140.206-100.278c-37.926-27.144-75.806-54.353-113.792-81.413
	c-2.823-2.011-4.216-4.224-4.777-7.584c-18.928-113.34-37.937-226.665-56.92-339.995c-3.191-19.054-6.222-38.135-9.577-57.158
	c-0.557-3.155-0.105-4.32,3.112-5.036c24.05-5.352,48.084-10.784,72.061-16.451c3.743-0.884,3.997,0.578,4.423,3.487
	c7.183,48.941,14.462,97.869,21.719,146.8c9.847,66.393,19.693,132.787,29.538,199.181c1.393,9.392,2.84,18.774,4.111,28.182
	c0.294,2.176,1.195,3.579,2.948,4.843c43.377,31.264,86.72,62.572,130.077,93.864c0.392,0.282,0.879,0.431,1.321,0.643
	c1.248-0.581,1.501-1.656,1.491-2.899c-0.012-1.498,0.002-2.997,0.002-4.496c0-168.041-0.002-336.082,0.029-504.124
	C373.63,118.412,373.075,116.209,374.128,114.155z"/>
<path fill="#BBDBE8" d="M428.235,762.306c-1.198-2.146-1.044-4.498-1.044-6.828c0.001-216.223,0-432.444,0.02-648.667
	c0-1.949-0.494-4.036,1.004-5.745c0.293-0.012,0.574-0.072,0.845-0.183c6.676,0.341,12.918,2.686,19.283,4.358
	c11.002,2.893,22.189,5.119,32.958,8.877c0.049,0.324,0.098,0.647,0.147,0.972c0.265,2.826,0.145,5.661,0.145,8.491
	c0.007,166.111,0.006,332.223,0.008,498.334c0.001,2.499-0.042,4.999,0.05,7.477c0.068,0.73,0.256,1.425,0.897,1.893
	c0.891,0.397,1.693-0.022,2.511-0.296c12.316-8.786,24.666-17.523,36.94-26.366c30.515-21.987,60.974-44.051,91.521-65.991
	c2.752-1.977,4.229-4.101,4.739-7.585c10.582-72.278,21.305-144.536,32.017-216.795c0.12-0.807,0.471-1.579,0.713-2.367
	c1.328-0.457,0.35-1.154,0.185-1.768c-0.113-1.795-0.013-3.557,0.831-5.2c0.241,0.165,0.478,0.338,0.709,0.517
	c-0.171-0.453-0.232-0.955-0.587-1.327c0.426-6.494,1.392-12.907,2.842-19.25c0.3,0.163,0.52,0.319,0.661,0.469
	c-0.104-0.444-0.186-0.898-0.539-1.232c2.37-16.796,4.679-33.6,7.126-50.385c3.623-24.864,7.341-49.714,11.038-74.567
	c0.121-0.811,0.446-1.59,0.676-2.385c2.412,0.161,4.785-0.153,7.149-0.576c23.224,5.22,46.446,10.449,69.677,15.639
	c1.97,0.44,2.034,0.854,1.784,3.174c-2.826,26.168-8.186,51.922-12.489,77.839c-16.976,102.276-34.506,204.462-51.004,306.813
	c-2.231,13.842-7.886,22.427-19.191,30.415c-78.49,55.466-156.465,111.66-234.616,167.606
	C432.966,759.295,430.574,760.763,428.235,762.306z"/>
<path fill="#004567" d="M485.06,630.988c-0.985,0.711-1.97,1.423-2.955,2.134c-1.4-1.74-0.987-3.815-0.987-5.777
	c-0.019-169.163-0.019-338.327,0-507.49c0-1.961-0.421-4.037,0.99-5.774c1.978,1.515,0.937,3.649,0.938,5.444
	c0.059,168.482,0.051,336.965,0.104,505.447C483.15,627.062,481.892,629.802,485.06,630.988z"/>
<path fill="#42819B" d="M482.108,114.08c-0.001,173.014-0.002,346.028-0.003,519.042c-0.436,0.857-0.758,0.195-1.109-0.084
	c-0.754-1.937-0.37-3.957-0.371-5.934c-0.059-170.691,0.056-341.384-0.07-512.075c0-0.331,0.079-0.661,0.121-0.99
	c0.219-0.051,0.428-0.024,0.627,0.079C481.569,114.073,481.838,114.06,482.108,114.08z"/>
<path fill="#C0DFEB" d="M681.082,156.179c-1.787,1.907-5.912-0.631-6.797,3.479c-0.117-0.967-0.235-1.935-0.352-2.901
	c-0.116-1.253,0.282-2.966,1.603-1.821C677.369,156.522,679.319,155.525,681.082,156.179z"/>
<path fill="#CEE9F4" d="M655.093,284.092c0.851,1.075,1.449,2.186,0.356,3.848c-0.19-1.229-0.334-2.156-0.478-3.084
	C654.835,284.572,654.876,284.318,655.093,284.092z"/>
<path fill="#D1EBF6" d="M652.129,304.105c0.826,1.074,1.386,2.186,0.342,3.842c-0.187-1.217-0.325-2.124-0.465-3.031
	C651.876,304.62,651.917,304.35,652.129,304.105z"/>
<path fill="#CCE7F2" d="M651.176,310.116c0.291,0.693,0.684,1.365,0.837,2.088c0.097,0.457,0.321,1.248-0.506,1.318
	c-0.125,0.01-0.342-1.065-0.516-1.639C651.053,311.295,651.114,310.705,651.176,310.116z"/>
<path fill="#005E88" d="M374.128,114.155c0.035,1.664,0.099,3.328,0.099,4.992c0.004,169.681,0.004,339.362,0.001,509.043
	c0,1.331,0.242,2.747-0.127,3.973c-0.538,1.784-1.344,0.513-1.994-0.11c1.434-2.648,0.978-5.531,0.978-8.336
	c0.016-168.062,0.01-336.123,0.072-504.185C373.159,117.763,372.078,115.621,374.128,114.155z"/>
<path fill="#B2D6E5" d="M428.824,103.773c0,218.149,0,436.3,0,654.449c-0.118,0-0.235,0.001-0.353,0.001c0-218.15,0-436.3,0-654.45
	C428.588,103.773,428.706,103.773,428.824,103.773z"/>
<path fill="#CEE9F4" d="M480.675,114.039c0.142,1.643,0.407,3.284,0.408,4.927c0.019,169.86,0.018,339.72,0.013,509.579
	c0,1.498-0.066,2.995-0.101,4.493c-1.53-2.282-0.866-4.859-0.866-7.3c-0.033-167.85-0.037-335.698,0.036-503.548
	C480.166,119.497,479.072,116.656,480.675,114.039z"/>
</svg>
