<?xml version="1.0" encoding="utf-8"?>
<!-- Generator: Adobe Illustrator 19.2.1, SVG Export Plug-In . SVG Version: 6.00 Build 0)  -->
<svg opacity=".1" version="1.1" id="Layer_1" xmlns="http://www.w3.org/2000/svg" xmlns:xlink="http://www.w3.org/1999/xlink" x="0px" y="0px"
	 viewBox="0 0 100 99.16" enable-background="new 0 0 100 99.16" xml:space="preserve">
<g>
	<polygon fill="#3B91E2" points="97.774,99.16 99.543,98.138 99.543,96.095 97.774,95.074 96.004,96.095 96.004,98.138 	"/>
	<polygon fill="#C7F0FE" points="97.774,93.029 97.774,95.072 99.543,96.094 100,95.83 100,92.271 99.543,92.008 	"/>
	<polygon fill="#60D3FC" points="97.774,93.026 99.543,92.005 99.543,89.962 97.774,88.94 96.004,89.962 96.004,92.005 	"/>
	<polygon fill="#60D3FC" points="94.235,93.026 96.004,92.005 96.004,89.962 94.235,88.94 92.465,89.962 92.465,92.005 	"/>
	<polygon fill="#3370C3" points="97.774,86.895 97.774,88.938 99.543,89.96 100,89.696 100,86.138 99.543,85.874 	"/>
	<polygon fill="#60D3FC" points="92.465,89.96 94.235,88.938 94.235,86.895 92.465,85.874 90.696,86.895 90.696,88.938 	"/>
	<polygon fill="#29539A" points="97.774,86.892 99.543,85.871 99.543,83.828 97.774,82.806 96.004,83.828 96.004,85.871 	"/>
	<polygon fill="#29539A" points="94.235,86.892 96.004,85.871 96.004,83.828 94.235,82.806 92.465,83.828 92.465,85.871 	"/>
	<polygon fill="#3370C3" points="88.927,83.826 90.696,82.805 90.696,80.761 88.927,79.74 87.157,80.761 87.157,82.805 	"/>
	<polygon fill="#60D3FC" points="94.235,80.758 96.004,79.737 96.004,77.694 94.235,76.672 92.465,77.694 92.465,79.737 	"/>
	<polygon fill="#3B91E2" points="87.157,80.758 88.927,79.737 88.927,77.694 87.157,76.672 85.388,77.694 85.388,79.737 	"/>
	<polygon fill="#C7F0FE" points="97.774,74.628 97.774,76.671 99.543,77.692 100,77.428 100,73.87 99.543,73.606 	"/>
	<polygon fill="#C7F0FE" points="96.004,77.692 97.774,76.671 97.774,74.628 96.004,73.606 94.235,74.628 94.235,76.671 	"/>
	<polygon fill="#3B91E2" points="92.465,77.692 94.235,76.671 94.235,74.628 92.465,73.606 90.696,74.628 90.696,76.671 	"/>
	<polygon fill="#BAEEFC" points="85.388,77.692 87.157,76.671 87.157,74.628 85.388,73.606 83.618,74.628 83.618,76.671 	"/>
	<polygon fill="#60D3FC" points="81.849,77.692 83.618,76.671 83.618,74.628 81.849,73.606 80.08,74.628 80.08,76.671 	"/>
	<polygon fill="#FFFCFE" points="99.543,73.603 100,73.867 100,71.296 99.543,71.56 	"/>
	<polygon fill="#3370C3" points="94.235,74.625 96.004,73.603 96.004,71.56 94.235,70.538 92.465,71.56 92.465,73.603 	"/>
	<polygon fill="#3370C3" points="87.157,74.625 88.927,73.603 88.927,71.56 87.157,70.538 85.388,71.56 85.388,73.603 	"/>
	<polygon fill="#FFFCFE" points="97.774,68.494 97.774,70.537 99.543,71.559 100,71.295 100,67.736 99.543,67.472 	"/>
	<polygon fill="#BAEEFC" points="96.004,71.559 97.774,70.537 97.774,68.494 96.004,67.472 94.235,68.494 94.235,70.537 	"/>
	<polygon fill="#4DCAF9" points="92.465,71.559 94.235,70.537 94.235,68.494 92.465,67.472 90.696,68.494 90.696,70.537 	"/>
	<polygon fill="#3B91E2" points="88.927,71.559 90.696,70.537 90.696,68.494 88.927,67.472 87.157,68.494 87.157,70.537 	"/>
	<polygon fill="#4DCAF9" points="85.388,71.559 87.157,70.537 87.157,68.494 85.388,67.472 83.618,68.494 83.618,70.537 	"/>
	<polygon fill="#60D3FC" points="81.849,71.559 83.618,70.537 83.618,68.494 81.849,67.472 80.08,68.494 80.08,70.537 	"/>
	<polygon fill="#3B91E2" points="78.31,71.559 80.08,70.537 80.08,68.494 78.31,67.472 76.541,68.494 76.541,70.537 	"/>
	<polygon fill="#3B91E2" points="99.543,67.469 100,67.733 100,65.162 99.543,65.426 	"/>
	<polygon fill="#3B91E2" points="97.774,68.491 99.543,67.469 99.543,65.426 97.774,64.405 96.004,65.426 96.004,67.469 	"/>
	<polygon fill="#C7F0FE" points="94.235,68.491 96.004,67.469 96.004,65.426 94.235,64.405 92.465,65.426 92.465,67.469 	"/>
	<polygon fill="#BAEEFC" points="90.696,68.491 92.465,67.469 92.465,65.426 90.696,64.405 88.927,65.426 88.927,67.469 	"/>
	<polygon fill="#4DCAF9" points="83.618,68.491 85.388,67.469 85.388,65.426 83.618,64.405 81.849,65.426 81.849,67.469 	"/>
	<polygon fill="#C7F0FE" points="76.541,68.491 78.31,67.469 78.31,65.426 76.541,64.405 74.771,65.426 74.771,67.469 	"/>
	<polygon fill="#FFFCFE" points="2.226,68.491 3.996,67.469 3.996,65.426 2.226,64.405 0.457,65.426 0.457,67.469 	"/>
	<polygon fill="#BAEEFC" points="0.457,65.426 0,65.162 0,67.733 0.457,67.469 	"/>
	<polygon fill="#3370C3" points="97.774,62.36 97.774,64.403 99.543,65.425 100,65.161 100,61.602 99.543,61.338 	"/>
	<polygon fill="#3370C3" points="96.004,65.425 97.774,64.403 97.774,62.36 96.004,61.338 94.235,62.36 94.235,64.403 	"/>
	<polygon fill="#60D3FC" points="92.465,65.425 94.235,64.403 94.235,62.36 92.465,61.338 90.696,62.36 90.696,64.403 	"/>
	<polygon fill="#60D3FC" points="88.927,65.425 90.696,64.403 90.696,62.36 88.927,61.338 87.157,62.36 87.157,64.403 	"/>
	<polygon fill="#FFFCFE" points="81.849,65.425 83.618,64.403 83.618,62.36 81.849,61.338 80.08,62.36 80.08,64.403 	"/>
	<polygon fill="#60D3FC" points="74.771,65.425 76.541,64.403 76.541,62.36 74.771,61.338 73.002,62.36 73.002,64.403 	"/>
	<polygon fill="#BAEEFC" points="67.694,65.425 69.463,64.403 69.463,62.36 67.694,61.338 65.925,62.36 65.925,64.403 	"/>
	<polygon fill="#60D3FC" points="7.535,65.425 9.304,64.403 9.304,62.36 7.535,61.338 5.765,62.36 5.765,64.403 	"/>
	<polygon fill="#29539A" points="99.543,61.335 100,61.599 100,59.028 99.543,59.292 	"/>
	<polygon fill="#4DCAF9" points="97.774,62.357 99.543,61.335 99.543,59.292 97.774,58.271 96.004,59.292 96.004,61.335 	"/>
	<polygon fill="#3B91E2" points="94.235,62.357 96.004,61.335 96.004,59.292 94.235,58.271 92.465,59.292 92.465,61.335 	"/>
	<polygon fill="#29539A" points="90.696,62.357 92.465,61.335 92.465,59.292 90.696,58.271 88.927,59.292 88.927,61.335 	"/>
	<polygon fill="#4DCAF9" points="87.157,62.357 88.927,61.335 88.927,59.292 87.157,58.271 85.388,59.292 85.388,61.335 	"/>
	<polygon fill="#60D3FC" points="83.618,62.357 85.388,61.335 85.388,59.292 83.618,58.271 81.849,59.292 81.849,61.335 	"/>
	<polygon fill="#60D3FC" points="80.08,62.357 81.849,61.335 81.849,59.292 80.08,58.271 78.31,59.292 78.31,61.335 	"/>
	<polygon fill="#C7F0FE" points="76.541,62.357 78.31,61.335 78.31,59.292 76.541,58.271 74.771,59.292 74.771,61.335 	"/>
	<polygon fill="#3B91E2" points="73.002,62.357 74.771,61.335 74.771,59.292 73.002,58.271 71.233,59.292 71.233,61.335 	"/>
	<polygon fill="#3B91E2" points="62.386,62.357 64.155,61.335 64.155,59.292 62.386,58.271 60.616,59.292 60.616,61.335 	"/>
	<polygon fill="#C7F0FE" points="58.847,62.357 60.616,61.335 60.616,59.292 58.847,58.271 57.078,59.292 57.078,61.335 	"/>
	<polygon fill="#29539A" points="5.765,62.357 7.535,61.335 7.535,59.292 5.765,58.271 3.996,59.292 3.996,61.335 	"/>
	<polygon fill="#29539A" points="2.226,62.357 3.996,61.335 3.996,59.292 2.226,58.271 0.457,59.292 0.457,61.335 	"/>
	<polygon fill="#60D3FC" points="0.457,59.292 0,59.028 0,61.599 0.457,61.335 	"/>
	<polygon fill="#60D3FC" points="97.774,56.226 97.774,58.269 99.543,59.291 100,59.027 100,55.468 99.543,55.204 	"/>
	<polygon fill="#29539A" points="92.465,59.291 94.235,58.269 94.235,56.226 92.465,55.204 90.696,56.226 90.696,58.269 	"/>
	<polygon fill="#3B91E2" points="88.927,59.291 90.696,58.269 90.696,56.226 88.927,55.204 87.157,56.226 87.157,58.269 	"/>
	<polygon fill="#4DCAF9" points="85.388,59.291 87.157,58.269 87.157,56.226 85.388,55.204 83.618,56.226 83.618,58.269 	"/>
	<polygon fill="#29539A" points="81.849,59.291 83.618,58.269 83.618,56.226 81.849,55.204 80.08,56.226 80.08,58.269 	"/>
	<polygon fill="#BAEEFC" points="78.31,59.291 80.08,58.269 80.08,56.226 78.31,55.204 76.541,56.226 76.541,58.269 	"/>
	<polygon fill="#3B91E2" points="71.233,59.291 73.002,58.269 73.002,56.226 71.233,55.204 69.463,56.226 69.463,58.269 	"/>
	<polygon fill="#4DCAF9" points="67.694,59.291 69.463,58.269 69.463,56.226 67.694,55.204 65.925,56.226 65.925,58.269 	"/>
	<polygon fill="#60D3FC" points="64.155,59.291 65.925,58.269 65.925,56.226 64.155,55.204 62.386,56.226 62.386,58.269 	"/>
	<polygon fill="#29539A" points="57.078,59.291 58.847,58.269 58.847,56.226 57.078,55.204 55.308,56.226 55.308,58.269 	"/>
	<polygon fill="#29539A" points="53.539,59.291 55.308,58.269 55.308,56.226 53.539,55.204 51.769,56.226 51.769,58.269 	"/>
	<polygon fill="#29539A" points="50,59.291 51.769,58.269 51.769,56.226 50,55.204 48.231,56.226 48.231,58.269 	"/>
	<polygon fill="#3370C3" points="18.151,59.291 19.92,58.269 19.92,56.226 18.151,55.204 16.382,56.226 16.382,58.269 	"/>
	<polygon fill="#C7F0FE" points="14.612,59.291 16.382,58.269 16.382,56.226 14.612,55.204 12.843,56.226 12.843,58.269 	"/>
	<polygon fill="#4DCAF9" points="11.073,59.291 12.843,58.269 12.843,56.226 11.073,55.204 9.304,56.226 9.304,58.269 	"/>
	<polygon fill="#BAEEFC" points="7.535,59.291 9.304,58.269 9.304,56.226 7.535,55.204 5.765,56.226 5.765,58.269 	"/>
	<polygon fill="#C7F0FE" points="99.543,55.202 100,55.465 100,52.895 99.543,53.159 	"/>
	<polygon fill="#3370C3" points="97.774,56.223 99.543,55.202 99.543,53.159 97.774,52.137 96.004,53.159 96.004,55.202 	"/>
	<polygon fill="#29539A" points="94.235,56.223 96.004,55.202 96.004,53.159 94.235,52.137 92.465,53.159 92.465,55.202 	"/>
	<polygon fill="#C7F0FE" points="87.157,56.223 88.927,55.202 88.927,53.159 87.157,52.137 85.388,53.159 85.388,55.202 	"/>
	<polygon fill="#3B91E2" points="83.618,56.223 85.388,55.202 85.388,53.159 83.618,52.137 81.849,53.159 81.849,55.202 	"/>
	<polygon fill="#C7F0FE" points="80.08,56.223 81.849,55.202 81.849,53.159 80.08,52.137 78.31,53.159 78.31,55.202 	"/>
	<polygon fill="#3370C3" points="76.541,56.223 78.31,55.202 78.31,53.159 76.541,52.137 74.771,53.159 74.771,55.202 	"/>
	<polygon fill="#C7F0FE" points="73.002,56.223 74.771,55.202 74.771,53.159 73.002,52.137 71.233,53.159 71.233,55.202 	"/>
	<polygon fill="#3B91E2" points="69.463,56.223 71.233,55.202 71.233,53.159 69.463,52.137 67.694,53.159 67.694,55.202 	"/>
	<polygon fill="#29539A" points="65.925,56.223 67.694,55.202 67.694,53.159 65.925,52.137 64.155,53.159 64.155,55.202 	"/>
	<polygon fill="#60D3FC" points="62.386,56.223 64.155,55.202 64.155,53.159 62.386,52.137 60.616,53.159 60.616,55.202 	"/>
	<polygon fill="#29539A" points="58.847,56.223 60.616,55.202 60.616,53.159 58.847,52.137 57.078,53.159 57.078,55.202 	"/>
	<polygon fill="#4DCAF9" points="55.308,56.223 57.078,55.202 57.078,53.159 55.308,52.137 53.539,53.159 53.539,55.202 	"/>
	<polygon fill="#C7F0FE" points="48.231,56.223 50,55.202 50,53.159 48.231,52.137 46.461,53.159 46.461,55.202 	"/>
	<polygon fill="#3370C3" points="41.153,56.223 42.922,55.202 42.922,53.159 41.153,52.137 39.384,53.159 39.384,55.202 	"/>
	<polygon fill="#60D3FC" points="34.076,56.223 35.845,55.202 35.845,53.159 34.076,52.137 32.306,53.159 32.306,55.202 	"/>
	<polygon fill="#3B91E2" points="30.537,56.223 32.306,55.202 32.306,53.159 30.537,52.137 28.767,53.159 28.767,55.202 	"/>
	<polygon fill="#3B91E2" points="23.459,56.223 25.229,55.202 25.229,53.159 23.459,52.137 21.69,53.159 21.69,55.202 	"/>
	<polygon fill="#3370C3" points="16.382,56.223 18.151,55.202 18.151,53.159 16.382,52.137 14.612,53.159 14.612,55.202 	"/>
	<polygon fill="#C7F0FE" points="9.304,56.223 11.073,55.202 11.073,53.159 9.304,52.137 7.535,53.159 7.535,55.202 	"/>
	<polygon fill="#29539A" points="5.765,56.223 7.535,55.202 7.535,53.159 5.765,52.137 3.996,53.159 3.996,55.202 	"/>
	<polygon fill="#FFFCFE" points="2.226,56.223 3.996,55.202 3.996,53.159 2.226,52.137 0.457,53.159 0.457,55.202 	"/>
	<polygon fill="#60D3FC" points="0.457,53.159 0,52.895 0,55.466 0.457,55.202 	"/>
	<polygon fill="#29539A" points="96.004,53.157 97.774,52.135 97.774,50.092 96.004,49.071 94.235,50.092 94.235,52.135 	"/>
	<polygon fill="#3370C3" points="92.465,53.157 94.235,52.135 94.235,50.092 92.465,49.071 90.696,50.092 90.696,52.135 	"/>
	<polygon fill="#C7F0FE" points="88.927,53.157 90.696,52.135 90.696,50.092 88.927,49.071 87.157,50.092 87.157,52.135 	"/>
	<polygon fill="#3370C3" points="85.388,53.157 87.157,52.135 87.157,50.092 85.388,49.071 83.618,50.092 83.618,52.135 	"/>
	<polygon fill="#3370C3" points="78.31,53.157 80.08,52.135 80.08,50.092 78.31,49.071 76.541,50.092 76.541,52.135 	"/>
	<polygon fill="#4DCAF9" points="74.771,53.157 76.541,52.135 76.541,50.092 74.771,49.071 73.002,50.092 73.002,52.135 	"/>
	<polygon fill="#4DCAF9" points="71.233,53.157 73.002,52.135 73.002,50.092 71.233,49.071 69.463,50.092 69.463,52.135 	"/>
	<polygon fill="#4DCAF9" points="67.694,53.157 69.463,52.135 69.463,50.092 67.694,49.071 65.925,50.092 65.925,52.135 	"/>
	<polygon fill="#29539A" points="64.155,53.157 65.925,52.135 65.925,50.092 64.155,49.071 62.386,50.092 62.386,52.135 	"/>
	<polygon fill="#C7F0FE" points="60.616,53.157 62.386,52.135 62.386,50.092 60.616,49.071 58.847,50.092 58.847,52.135 	"/>
	<polygon fill="#29539A" points="57.078,53.157 58.847,52.135 58.847,50.092 57.078,49.071 55.308,50.092 55.308,52.135 	"/>
	<polygon fill="#4DCAF9" points="53.539,53.157 55.308,52.135 55.308,50.092 53.539,49.071 51.769,50.092 51.769,52.135 	"/>
	<polygon fill="#C7F0FE" points="50,53.157 51.769,52.135 51.769,50.092 50,49.071 48.231,50.092 48.231,52.135 	"/>
	<polygon fill="#C7F0FE" points="42.922,53.157 44.692,52.135 44.692,50.092 42.922,49.071 41.153,50.092 41.153,52.135 	"/>
	<polygon fill="#3B91E2" points="35.845,53.157 37.614,52.135 37.614,50.092 35.845,49.071 34.076,50.092 34.076,52.135 	"/>
	<polygon fill="#29539A" points="25.229,53.157 26.998,52.135 26.998,50.092 25.229,49.071 23.459,50.092 23.459,52.135 	"/>
	<polygon fill="#C7F0FE" points="21.69,53.157 23.459,52.135 23.459,50.092 21.69,49.071 19.92,50.092 19.92,52.135 	"/>
	<polygon fill="#C7F0FE" points="18.151,53.157 19.92,52.135 19.92,50.092 18.151,49.071 16.382,50.092 16.382,52.135 	"/>
	<polygon fill="#4DCAF9" points="11.073,53.157 12.843,52.135 12.843,50.092 11.073,49.071 9.304,50.092 9.304,52.135 	"/>
	<polygon fill="#3B91E2" points="3.996,53.157 5.765,52.135 5.765,50.092 3.996,49.071 2.226,50.092 2.226,52.135 	"/>
	<polygon fill="#4DCAF9" points="99.543,49.068 100,49.332 100,46.761 99.543,47.025 	"/>
	<polygon fill="#4DCAF9" points="97.774,50.089 99.543,49.068 99.543,47.025 97.774,46.003 96.004,47.025 96.004,49.068 	"/>
	<polygon fill="#3B91E2" points="94.235,50.089 96.004,49.068 96.004,47.025 94.235,46.003 92.465,47.025 92.465,49.068 	"/>
	<polygon fill="#C7F0FE" points="87.157,50.089 88.927,49.068 88.927,47.025 87.157,46.003 85.388,47.025 85.388,49.068 	"/>
	<polygon fill="#3370C3" points="83.618,50.089 85.388,49.068 85.388,47.025 83.618,46.003 81.849,47.025 81.849,49.068 	"/>
	<polygon fill="#3370C3" points="80.08,50.089 81.849,49.068 81.849,47.025 80.08,46.003 78.31,47.025 78.31,49.068 	"/>
	<polygon fill="#3B91E2" points="73.002,50.089 74.771,49.068 74.771,47.025 73.002,46.003 71.233,47.025 71.233,49.068 	"/>
	<polygon fill="#29539A" points="65.925,50.089 67.694,49.068 67.694,47.025 65.925,46.003 64.155,47.025 64.155,49.068 	"/>
	<polygon fill="#C7F0FE" points="62.386,50.089 64.155,49.068 64.155,47.025 62.386,46.003 60.616,47.025 60.616,49.068 	"/>
	<polygon fill="#C7F0FE" points="58.847,50.089 60.616,49.068 60.616,47.025 58.847,46.003 57.078,47.025 57.078,49.068 	"/>
	<polygon fill="#60D3FC" points="55.308,50.089 57.078,49.068 57.078,47.025 55.308,46.003 53.539,47.025 53.539,49.068 	"/>
	<polygon fill="#3B91E2" points="51.769,50.089 53.539,49.068 53.539,47.025 51.769,46.003 50,47.025 50,49.068 	"/>
	<polygon fill="#FFFCFE" points="48.231,50.089 50,49.068 50,47.025 48.231,46.003 46.461,47.025 46.461,49.068 	"/>
	<polygon fill="#3370C3" points="44.692,50.089 46.461,49.068 46.461,47.025 44.692,46.003 42.922,47.025 42.922,49.068 	"/>
	<polygon fill="#29539A" points="41.153,50.089 42.922,49.068 42.922,47.025 41.153,46.003 39.384,47.025 39.384,49.068 	"/>
	<polygon fill="#3B91E2" points="37.614,50.089 39.384,49.068 39.384,47.025 37.614,46.003 35.845,47.025 35.845,49.068 	"/>
	<polygon fill="#3370C3" points="34.076,50.089 35.845,49.068 35.845,47.025 34.076,46.003 32.306,47.025 32.306,49.068 	"/>
	<polygon fill="#3370C3" points="30.537,50.089 32.306,49.068 32.306,47.025 30.537,46.003 28.767,47.025 28.767,49.068 	"/>
	<polygon fill="#3B91E2" points="26.998,50.089 28.767,49.068 28.767,47.025 26.998,46.003 25.229,47.025 25.229,49.068 	"/>
	<polygon fill="#BAEEFC" points="23.459,50.089 25.229,49.068 25.229,47.025 23.459,46.003 21.69,47.025 21.69,49.068 	"/>
	<polygon fill="#60D3FC" points="16.382,50.089 18.151,49.068 18.151,47.025 16.382,46.003 14.612,47.025 14.612,49.068 	"/>
	<polygon fill="#29539A" points="12.843,50.089 14.612,49.068 14.612,47.025 12.843,46.003 11.073,47.025 11.073,49.068 	"/>
	<polygon fill="#3370C3" points="9.304,50.089 11.073,49.068 11.073,47.025 9.304,46.003 7.535,47.025 7.535,49.068 	"/>
	<polygon fill="#60D3FC" points="2.226,50.089 3.996,49.068 3.996,47.025 2.226,46.003 0.457,47.025 0.457,49.068 	"/>
	<polygon fill="#29539A" points="0.457,47.025 0,46.761 0,49.332 0.457,49.068 	"/>
	<polygon fill="#C7F0FE" points="97.774,43.958 97.774,46.002 99.543,47.023 100,46.759 100,43.201 99.543,42.937 	"/>
	<polygon fill="#60D3FC" points="96.004,47.023 97.774,46.002 97.774,43.958 96.004,42.937 94.235,43.958 94.235,46.002 	"/>
	<polygon fill="#C7F0FE" points="92.465,47.023 94.235,46.002 94.235,43.958 92.465,42.937 90.696,43.958 90.696,46.002 	"/>
	<polygon fill="#C7F0FE" points="88.927,47.023 90.696,46.002 90.696,43.958 88.927,42.937 87.157,43.958 87.157,46.002 	"/>
	<polygon fill="#60D3FC" points="85.388,47.023 87.157,46.002 87.157,43.958 85.388,42.937 83.618,43.958 83.618,46.002 	"/>
	<polygon fill="#3B91E2" points="81.849,47.023 83.618,46.002 83.618,43.958 81.849,42.937 80.08,43.958 80.08,46.002 	"/>
	<polygon fill="#29539A" points="78.31,47.023 80.08,46.002 80.08,43.958 78.31,42.937 76.541,43.958 76.541,46.002 	"/>
	<polygon fill="#4DCAF9" points="74.771,47.023 76.541,46.002 76.541,43.958 74.771,42.937 73.002,43.958 73.002,46.002 	"/>
	<polygon fill="#FFFCFE" points="71.233,47.023 73.002,46.002 73.002,43.958 71.233,42.937 69.463,43.958 69.463,46.002 	"/>
	<polygon fill="#29539A" points="64.155,47.023 65.925,46.002 65.925,43.958 64.155,42.937 62.386,43.958 62.386,46.002 	"/>
	<polygon fill="#4DCAF9" points="53.539,47.023 55.308,46.002 55.308,43.958 53.539,42.937 51.769,43.958 51.769,46.002 	"/>
	<polygon fill="#3370C3" points="50,47.023 51.769,46.002 51.769,43.958 50,42.937 48.231,43.958 48.231,46.002 	"/>
	<polygon fill="#C7F0FE" points="42.922,47.023 44.692,46.002 44.692,43.958 42.922,42.937 41.153,43.958 41.153,46.002 	"/>
	<polygon fill="#3B91E2" points="39.384,47.023 41.153,46.002 41.153,43.958 39.384,42.937 37.614,43.958 37.614,46.002 	"/>
	<polygon fill="#C7F0FE" points="35.845,47.023 37.614,46.002 37.614,43.958 35.845,42.937 34.076,43.958 34.076,46.002 	"/>
	<polygon fill="#3B91E2" points="32.306,47.023 34.076,46.002 34.076,43.958 32.306,42.937 30.537,43.958 30.537,46.002 	"/>
	<polygon fill="#BAEEFC" points="25.229,47.023 26.998,46.002 26.998,43.958 25.229,42.937 23.459,43.958 23.459,46.002 	"/>
	<polygon fill="#FFFCFE" points="21.69,47.023 23.459,46.002 23.459,43.958 21.69,42.937 19.92,43.958 19.92,46.002 	"/>
	<polygon fill="#3B91E2" points="18.151,47.023 19.92,46.002 19.92,43.958 18.151,42.937 16.382,43.958 16.382,46.002 	"/>
	<polygon fill="#60D3FC" points="14.612,47.023 16.382,46.002 16.382,43.958 14.612,42.937 12.843,43.958 12.843,46.002 	"/>
	<polygon fill="#3370C3" points="7.535,47.023 9.304,46.002 9.304,43.958 7.535,42.937 5.765,43.958 5.765,46.002 	"/>
	<polygon fill="#FFFCFE" points="2.226,46.002 2.226,43.958 0.457,42.937 0,43.201 0,46.759 0.457,47.023 	"/>
	<polygon fill="#FFFCFE" points="99.543,42.934 100,43.198 100,40.627 99.543,40.891 	"/>
	<polygon fill="#4DCAF9" points="90.696,43.956 92.465,42.934 92.465,40.891 90.696,39.869 88.927,40.891 88.927,42.934 	"/>
	<polygon fill="#C7F0FE" points="83.618,43.956 85.388,42.934 85.388,40.891 83.618,39.869 81.849,40.891 81.849,42.934 	"/>
	<polygon fill="#C7F0FE" points="58.847,43.956 60.616,42.934 60.616,40.891 58.847,39.869 57.078,40.891 57.078,42.934 	"/>
	<polygon fill="#C7F0FE" points="51.769,43.956 53.539,42.934 53.539,40.891 51.769,39.869 50,40.891 50,42.934 	"/>
	<polygon fill="#FFFCFE" points="48.231,43.956 50,42.934 50,40.891 48.231,39.869 46.461,40.891 46.461,42.934 	"/>
	<polygon fill="#4DCAF9" points="44.692,43.956 46.461,42.934 46.461,40.891 44.692,39.869 42.922,40.891 42.922,42.934 	"/>
	<polygon fill="#3B91E2" points="37.614,43.956 39.384,42.934 39.384,40.891 37.614,39.869 35.845,40.891 35.845,42.934 	"/>
	<polygon fill="#3B91E2" points="34.076,43.956 35.845,42.934 35.845,40.891 34.076,39.869 32.306,40.891 32.306,42.934 	"/>
	<polygon fill="#BAEEFC" points="30.537,43.956 32.306,42.934 32.306,40.891 30.537,39.869 28.767,40.891 28.767,42.934 	"/>
	<polygon fill="#60D3FC" points="26.998,43.956 28.767,42.934 28.767,40.891 26.998,39.869 25.229,40.891 25.229,42.934 	"/>
	<polygon fill="#29539A" points="23.459,43.956 25.229,42.934 25.229,40.891 23.459,39.869 21.69,40.891 21.69,42.934 	"/>
	<polygon fill="#3370C3" points="19.92,43.956 21.69,42.934 21.69,40.891 19.92,39.869 18.151,40.891 18.151,42.934 	"/>
	<polygon fill="#60D3FC" points="16.382,43.956 18.151,42.934 18.151,40.891 16.382,39.869 14.612,40.891 14.612,42.934 	"/>
	<polygon fill="#3B91E2" points="12.843,43.956 14.612,42.934 14.612,40.891 12.843,39.869 11.073,40.891 11.073,42.934 	"/>
	<polygon fill="#60D3FC" points="9.304,43.956 11.073,42.934 11.073,40.891 9.304,39.869 7.535,40.891 7.535,42.934 	"/>
	<polygon fill="#C7F0FE" points="5.765,43.956 7.535,42.934 7.535,40.891 5.765,39.869 3.996,40.891 3.996,42.934 	"/>
	<polygon fill="#60D3FC" points="2.226,43.956 3.996,42.934 3.996,40.891 2.226,39.869 0.457,40.891 0.457,42.934 	"/>
	<polygon fill="#60D3FC" points="97.774,37.825 97.774,39.868 99.543,40.889 100,40.625 100,37.067 99.543,36.803 	"/>
	<polygon fill="#3370C3" points="92.465,40.889 94.235,39.868 94.235,37.825 92.465,36.803 90.696,37.825 90.696,39.868 	"/>
	<polygon fill="#60D3FC" points="50,40.889 51.769,39.868 51.769,37.825 50,36.803 48.231,37.825 48.231,39.868 	"/>
	<polygon fill="#C7F0FE" points="42.922,40.889 44.692,39.868 44.692,37.825 42.922,36.803 41.153,37.825 41.153,39.868 	"/>
	<polygon fill="#3B91E2" points="39.384,40.889 41.153,39.868 41.153,37.825 39.384,36.803 37.614,37.825 37.614,39.868 	"/>
	<polygon fill="#BAEEFC" points="35.845,40.889 37.614,39.868 37.614,37.825 35.845,36.803 34.076,37.825 34.076,39.868 	"/>
	<polygon fill="#4DCAF9" points="28.767,40.889 30.537,39.868 30.537,37.825 28.767,36.803 26.998,37.825 26.998,39.868 	"/>
	<polygon fill="#29539A" points="25.229,40.889 26.998,39.868 26.998,37.825 25.229,36.803 23.459,37.825 23.459,39.868 	"/>
	<polygon fill="#3B91E2" points="21.69,40.889 23.459,39.868 23.459,37.825 21.69,36.803 19.92,37.825 19.92,39.868 	"/>
	<polygon fill="#29539A" points="18.151,40.889 19.92,39.868 19.92,37.825 18.151,36.803 16.382,37.825 16.382,39.868 	"/>
	<polygon fill="#C7F0FE" points="14.612,40.889 16.382,39.868 16.382,37.825 14.612,36.803 12.843,37.825 12.843,39.868 	"/>
	<polygon fill="#C7F0FE" points="11.073,40.889 12.843,39.868 12.843,37.825 11.073,36.803 9.304,37.825 9.304,39.868 	"/>
	<polygon fill="#60D3FC" points="7.535,40.889 9.304,39.868 9.304,37.825 7.535,36.803 5.765,37.825 5.765,39.868 	"/>
	<polygon fill="#29539A" points="3.996,40.889 5.765,39.868 5.765,37.825 3.996,36.803 2.226,37.825 2.226,39.868 	"/>
	<polygon fill="#29539A" points="2.226,39.868 2.226,37.825 0.457,36.803 0,37.067 0,40.625 0.457,40.889 	"/>
	<polygon fill="#60D3FC" points="41.153,37.822 42.922,36.8 42.922,34.757 41.153,33.736 39.384,34.757 39.384,36.8 	"/>
	<polygon fill="#29539A" points="37.614,37.822 39.384,36.8 39.384,34.757 37.614,33.736 35.845,34.757 35.845,36.8 	"/>
	<polygon fill="#4DCAF9" points="34.076,37.822 35.845,36.8 35.845,34.757 34.076,33.736 32.306,34.757 32.306,36.8 	"/>
	<polygon fill="#FFFCFE" points="30.537,37.822 32.306,36.8 32.306,34.757 30.537,33.736 28.767,34.757 28.767,36.8 	"/>
	<polygon fill="#4DCAF9" points="26.998,37.822 28.767,36.8 28.767,34.757 26.998,33.736 25.229,34.757 25.229,36.8 	"/>
	<polygon fill="#FFFCFE" points="23.459,37.822 25.229,36.8 25.229,34.757 23.459,33.736 21.69,34.757 21.69,36.8 	"/>
	<polygon fill="#29539A" points="19.92,37.822 21.69,36.8 21.69,34.757 19.92,33.736 18.151,34.757 18.151,36.8 	"/>
	<polygon fill="#3370C3" points="16.382,37.822 18.151,36.8 18.151,34.757 16.382,33.736 14.612,34.757 14.612,36.8 	"/>
	<polygon fill="#29539A" points="12.843,37.822 14.612,36.8 14.612,34.757 12.843,33.736 11.073,34.757 11.073,36.8 	"/>
	<polygon fill="#3370C3" points="9.304,37.822 11.073,36.8 11.073,34.757 9.304,33.736 7.535,34.757 7.535,36.8 	"/>
	<polygon fill="#3370C3" points="5.765,37.822 7.535,36.8 7.535,34.757 5.765,33.736 3.996,34.757 3.996,36.8 	"/>
	<polygon fill="#3370C3" points="2.226,37.822 3.996,36.8 3.996,34.757 2.226,33.736 0.457,34.757 0.457,36.8 	"/>
	<polygon fill="#FFFCFE" points="0.457,34.757 0,34.493 0,37.064 0.457,36.8 	"/>
	<polygon fill="#3B91E2" points="28.767,34.755 30.537,33.734 30.537,31.691 28.767,30.669 26.998,31.691 26.998,33.734 	"/>
	<polygon fill="#60D3FC" points="21.69,34.755 23.459,33.734 23.459,31.691 21.69,30.669 19.92,31.691 19.92,33.734 	"/>
	<polygon fill="#3370C3" points="18.151,34.755 19.92,33.734 19.92,31.691 18.151,30.669 16.382,31.691 16.382,33.734 	"/>
	<polygon fill="#C7F0FE" points="14.612,34.755 16.382,33.734 16.382,31.691 14.612,30.669 12.843,31.691 12.843,33.734 	"/>
	<polygon fill="#3B91E2" points="11.073,34.755 12.843,33.734 12.843,31.691 11.073,30.669 9.304,31.691 9.304,33.734 	"/>
	<polygon fill="#C7F0FE" points="7.535,34.755 9.304,33.734 9.304,31.691 7.535,30.669 5.765,31.691 5.765,33.734 	"/>
	<polygon fill="#29539A" points="3.996,34.755 5.765,33.734 5.765,31.691 3.996,30.669 2.226,31.691 2.226,33.734 	"/>
	<polygon fill="#C7F0FE" points="2.226,33.734 2.226,31.691 0.457,30.669 0,30.933 0,34.492 0.457,34.755 	"/>
	<polygon fill="#4DCAF9" points="26.998,31.688 28.767,30.666 28.767,28.623 26.998,27.602 25.229,28.623 25.229,30.666 	"/>
	<polygon fill="#FFFCFE" points="23.459,31.688 25.229,30.666 25.229,28.623 23.459,27.602 21.69,28.623 21.69,30.666 	"/>
	<polygon fill="#C7F0FE" points="19.92,31.688 21.69,30.666 21.69,28.623 19.92,27.602 18.151,28.623 18.151,30.666 	"/>
	<polygon fill="#C7F0FE" points="16.382,31.688 18.151,30.666 18.151,28.623 16.382,27.602 14.612,28.623 14.612,30.666 	"/>
	<polygon fill="#C7F0FE" points="12.843,31.688 14.612,30.666 14.612,28.623 12.843,27.602 11.073,28.623 11.073,30.666 	"/>
	<polygon fill="#BAEEFC" points="9.304,31.688 11.073,30.666 11.073,28.623 9.304,27.602 7.535,28.623 7.535,30.666 	"/>
	<polygon fill="#C7F0FE" points="5.765,31.688 7.535,30.666 7.535,28.623 5.765,27.602 3.996,28.623 3.996,30.666 	"/>
	<polygon fill="#29539A" points="2.226,31.688 3.996,30.666 3.996,28.623 2.226,27.602 0.457,28.623 0.457,30.666 	"/>
	<polygon fill="#3370C3" points="0.457,28.623 0,28.359 0,30.93 0.457,30.666 	"/>
	<polygon fill="#4DCAF9" points="25.229,28.622 26.998,27.6 26.998,25.557 25.229,24.535 23.459,25.557 23.459,27.6 	"/>
	<polygon fill="#60D3FC" points="21.69,28.622 23.459,27.6 23.459,25.557 21.69,24.535 19.92,25.557 19.92,27.6 	"/>
	<polygon fill="#29539A" points="14.612,28.622 16.382,27.6 16.382,25.557 14.612,24.535 12.843,25.557 12.843,27.6 	"/>
	<polygon fill="#3B91E2" points="11.073,28.622 12.843,27.6 12.843,25.557 11.073,24.535 9.304,25.557 9.304,27.6 	"/>
	<polygon fill="#FFFCFE" points="7.535,28.622 9.304,27.6 9.304,25.557 7.535,24.535 5.765,25.557 5.765,27.6 	"/>
	<polygon fill="#C7F0FE" points="3.996,28.622 5.765,27.6 5.765,25.557 3.996,24.535 2.226,25.557 2.226,27.6 	"/>
	<polygon fill="#C7F0FE" points="2.226,27.6 2.226,25.557 0.457,24.535 0,24.799 0,28.358 0.457,28.622 	"/>
	<polygon fill="#3B91E2" points="19.92,25.554 21.69,24.532 21.69,22.489 19.92,21.468 18.151,22.489 18.151,24.532 	"/>
	<polygon fill="#3B91E2" points="16.382,25.554 18.151,24.532 18.151,22.489 16.382,21.468 14.612,22.489 14.612,24.532 	"/>
	<polygon fill="#3B91E2" points="9.304,25.554 11.073,24.532 11.073,22.489 9.304,21.468 7.535,22.489 7.535,24.532 	"/>
	<polygon fill="#BAEEFC" points="5.765,25.554 7.535,24.532 7.535,22.489 5.765,21.468 3.996,22.489 3.996,24.532 	"/>
	<polygon fill="#4DCAF9" points="2.226,25.554 3.996,24.532 3.996,22.489 2.226,21.468 0.457,22.489 0.457,24.532 	"/>
	<polygon fill="#60D3FC" points="0.457,22.489 0,22.225 0,24.796 0.457,24.532 	"/>
	<polygon fill="#FFFCFE" points="14.612,22.488 16.382,21.466 16.382,19.423 14.612,18.402 12.843,19.423 12.843,21.466 	"/>
	<polygon fill="#3B91E2" points="11.073,22.488 12.843,21.466 12.843,19.423 11.073,18.402 9.304,19.423 9.304,21.466 	"/>
	<polygon fill="#4DCAF9" points="3.996,22.488 5.765,21.466 5.765,19.423 3.996,18.402 2.226,19.423 2.226,21.466 	"/>
	<polygon fill="#C7F0FE" points="2.226,21.466 2.226,19.423 0.457,18.402 0,18.666 0,22.224 0.457,22.488 	"/>
	<polygon fill="#60D3FC" points="16.382,19.42 18.151,18.399 18.151,16.355 16.382,15.334 14.612,16.355 14.612,18.399 	"/>
	<polygon fill="#C7F0FE" points="9.304,19.42 11.073,18.399 11.073,16.355 9.304,15.334 7.535,16.355 7.535,18.399 	"/>
	<polygon fill="#C7F0FE" points="5.765,19.42 7.535,18.399 7.535,16.355 5.765,15.334 3.996,16.355 3.996,18.399 	"/>
	<polygon fill="#60D3FC" points="2.226,19.42 3.996,18.399 3.996,16.355 2.226,15.334 0.457,16.355 0.457,18.399 	"/>
	<polygon fill="#BAEEFC" points="0.457,16.355 0,16.092 0,18.663 0.457,18.399 	"/>
	<polygon fill="#60D3FC" points="11.073,16.354 12.843,15.332 12.843,13.289 11.073,12.268 9.304,13.289 9.304,15.332 	"/>
	<polygon fill="#4DCAF9" points="3.996,16.354 5.765,15.332 5.765,13.289 3.996,12.268 2.226,13.289 2.226,15.332 	"/>
	<polygon fill="#C7F0FE" points="2.226,15.332 2.226,13.289 0.457,12.268 0,12.532 0,16.09 0.457,16.354 	"/>
	<polygon fill="#3370C3" points="0.457,10.222 0,9.958 0,12.529 0.457,12.265 	"/>
	<polygon fill="#C7F0FE" points="7.535,10.22 9.304,9.198 9.304,7.155 7.535,6.134 5.765,7.155 5.765,9.198 	"/>
	<polygon fill="#3B91E2" points="3.996,10.22 5.765,9.198 5.765,7.155 3.996,6.134 2.226,7.155 2.226,9.198 	"/>
	<polygon fill="#3370C3" points="2.226,9.198 2.226,7.155 0.457,6.134 0,6.398 0,9.956 0.457,10.22 	"/>
	<polygon fill="#4DCAF9" points="0.457,4.088 0,3.824 0,6.395 0.457,6.131 	"/>
	<polygon fill="#3370C3" points="2.226,3.065 2.226,1.022 0.457,0 0,0.264 0,3.822 0.457,4.086 	"/>
</g>
</svg>
