<?xml version="1.0" encoding="utf-8"?>
<!-- Generator: Adobe Illustrator 19.2.1, SVG Export Plug-In . SVG Version: 6.00 Build 0)  -->
<svg version="1.1" id="Layer_1" xmlns="http://www.w3.org/2000/svg" xmlns:xlink="http://www.w3.org/1999/xlink" x="0px" y="0px"
	 viewBox="0 0 93.38 5.144" enable-background="new 0 0 93.38 5.144" xml:space="preserve">
<g>
	<g>
		<path fill="#FFFFFF" d="M4.896,0.081H7.98v0.316H6.623v3.574h-0.37V0.397H4.896V0.081z"/>
		<path fill="#FFFFFF" d="M8.346,0.081h0.37V1.77h2.31V0.081h0.37v3.89h-0.37V2.086h-2.31v1.885h-0.37V0.081z"/>
		<path fill="#FFFFFF" d="M12.182,0.081h2.686v0.316h-2.316v1.406h2.169v0.316h-2.169v1.537h2.343v0.316h-2.714V0.081z"/>
	</g>
	<g>
		<polygon fill="#FFFFFF" points="0.78,3.195 0.78,1.638 0,1.638 0,3.973 2.336,3.973 2.336,3.195 		"/>
		<polygon fill="#FFFFFF" points="3.891,0.081 0.001,0.081 0.001,1.248 0.779,1.248 0.779,0.863 3.113,0.863 3.113,3.195 
			2.725,3.195 2.725,3.973 3.891,3.973 		"/>
	</g>
	<g>
		<path fill="#FFFFFF" d="M35.448,0.082h2.468v0.316h-2.098v1.406h1.863V2.12h-1.863v1.853h-0.37V0.082z"/>
		<path fill="#FFFFFF" d="M40.003,0c1.221,0,1.831,0.959,1.831,2.027c0,1.068-0.61,2.027-1.831,2.027
			c-1.226,0-1.836-0.959-1.836-2.027C38.167,0.959,38.777,0,40.003,0z M40.003,3.738c1.024,0,1.46-0.861,1.46-1.711
			c0-0.85-0.436-1.711-1.46-1.711c-1.03,0-1.466,0.861-1.466,1.711C38.538,2.877,38.973,3.738,40.003,3.738z"/>
		<path fill="#FFFFFF" d="M42.374,0.082h0.37V2.49c0,0.899,0.42,1.248,1.139,1.248c0.725,0,1.144-0.349,1.144-1.248V0.082h0.371
			v2.49c0,0.801-0.43,1.482-1.515,1.482c-1.073,0-1.509-0.681-1.509-1.482V0.082z"/>
		<path fill="#FFFFFF" d="M46.14,0.082h0.414l2.267,3.291h0.011V0.082h0.371v3.89h-0.414l-2.267-3.291H46.51v3.291H46.14V0.082z"/>
		<path fill="#FFFFFF" d="M49.982,0.082h1.346c1.177,0.027,1.787,0.659,1.787,1.945c0,1.286-0.61,1.918-1.787,1.945h-1.346V0.082z
			 M50.352,3.656h0.79c1.117,0,1.602-0.463,1.602-1.629s-0.485-1.629-1.602-1.629h-0.79V3.656z"/>
		<path fill="#FFFFFF" d="M54.854,0.082h0.414l1.526,3.89h-0.398l-0.474-1.21h-1.771l-0.469,1.21h-0.398L54.854,0.082z
			 M54.265,2.446h1.531l-0.752-1.994L54.265,2.446z"/>
		<path fill="#FFFFFF" d="M56.358,0.082h3.084v0.316h-1.357v3.574h-0.371V0.398h-1.357V0.082z"/>
		<path fill="#FFFFFF" d="M59.835,0.082h0.371v3.89h-0.371V0.082z"/>
		<path fill="#FFFFFF" d="M62.647,0c1.221,0,1.831,0.959,1.831,2.027c0,1.068-0.61,2.027-1.831,2.027
			c-1.226,0-1.836-0.959-1.836-2.027C60.81,0.959,61.421,0,62.647,0z M62.647,3.738c1.024,0,1.46-0.861,1.46-1.711
			c0-0.85-0.436-1.711-1.46-1.711c-1.03,0-1.466,0.861-1.466,1.711C61.181,2.877,61.617,3.738,62.647,3.738z"/>
		<path fill="#FFFFFF" d="M65.05,0.082h0.414l2.267,3.291h0.011V0.082h0.371v3.89h-0.414l-2.267-3.291h-0.011v3.291H65.05V0.082z"/>
	</g>
	<g>
		<path fill="#FFFFFF" d="M15.922,0.081h1.194v2.881h1.714v0.993h-2.908V0.081z"/>
		<path fill="#FFFFFF" d="M19.611,0.081h1.194v3.874h-1.194V0.081z"/>
		<path fill="#FFFFFF" d="M21.694,0.081h1.221l1.128,2.072h0.011V0.081h1.128v3.874h-1.161l-1.188-2.116h-0.011v2.116h-1.128V0.081z
			"/>
		<path fill="#FFFFFF" d="M29.592,2.457c0,1.08-0.57,1.59-1.763,1.59c-1.193,0-1.769-0.51-1.769-1.59V0.081h1.193v2.11
			c0,0.391-0.005,0.89,0.58,0.89c0.564,0,0.564-0.499,0.564-0.89v-2.11h1.193V2.457z"/>
		<path fill="#FFFFFF" d="M31.491,1.893l-1.275-1.812h1.4l0.586,1.052l0.575-1.052H34.1l-1.242,1.823l1.383,2.051h-1.438
			l-0.662-1.156l-0.684,1.156h-1.367L31.491,1.893z"/>
	</g>
	<g>
		<path fill="#FFFFFF" d="M69.426,0.132h1.07c0.409,0,0.723,0.092,0.94,0.275c0.218,0.184,0.326,0.434,0.326,0.75
			c0,0.32-0.11,0.574-0.329,0.761c-0.22,0.187-0.541,0.281-0.966,0.281h-0.742v1.814h-0.3V0.132z M69.726,0.382v1.567h0.722
			c0.324,0,0.57-0.068,0.739-0.206c0.168-0.137,0.253-0.331,0.253-0.581c0-0.239-0.082-0.429-0.247-0.569
			c-0.165-0.141-0.401-0.211-0.709-0.211H69.726z"/>
		<path fill="#FFFFFF" d="M72.332,0.132h0.995c0.417,0,0.735,0.09,0.956,0.271c0.22,0.181,0.331,0.425,0.331,0.732
			c0,0.448-0.246,0.763-0.739,0.945c0.128,0.061,0.3,0.258,0.517,0.592l0.878,1.342h-0.355l-0.676-1.064
			c-0.226-0.356-0.402-0.578-0.528-0.666c-0.126-0.088-0.31-0.132-0.553-0.132h-0.525v1.862h-0.3V0.132z M72.632,0.382v1.52h0.645
			c0.328,0,0.578-0.066,0.752-0.199c0.173-0.132,0.26-0.32,0.26-0.563c0-0.239-0.088-0.425-0.264-0.558s-0.429-0.2-0.758-0.2H72.632
			z"/>
		<path fill="#FFFFFF" d="M77.284,0.082c0.574,0,1.061,0.193,1.46,0.579c0.399,0.386,0.599,0.857,0.599,1.413
			c0,0.554-0.2,1.024-0.599,1.41s-0.886,0.579-1.46,0.579c-0.572,0-1.057-0.193-1.455-0.579c-0.397-0.386-0.596-0.856-0.596-1.41
			c0-0.556,0.199-1.027,0.596-1.413C76.227,0.275,76.712,0.082,77.284,0.082z M77.295,3.785c0.483,0,0.891-0.165,1.224-0.496
			c0.332-0.331,0.499-0.736,0.499-1.216c0-0.482-0.166-0.888-0.499-1.218c-0.332-0.331-0.74-0.496-1.224-0.496
			c-0.485,0-0.896,0.165-1.232,0.496s-0.504,0.737-0.504,1.218c0,0.48,0.168,0.885,0.504,1.216S76.81,3.785,77.295,3.785z"/>
		<path fill="#FFFFFF" d="M80.396,0.132v3.881c0,0.428-0.08,0.723-0.242,0.886c-0.161,0.163-0.352,0.245-0.572,0.245
			c-0.052,0-0.112-0.004-0.181-0.011l-0.028-0.284c0.063,0.015,0.122,0.022,0.178,0.022c0.363,0,0.545-0.259,0.545-0.778V0.132
			H80.396z"/>
		<path fill="#FFFFFF" d="M83.386,0.132v0.25h-1.817v1.553h1.77v0.253h-1.77v1.575h1.862v0.25h-2.162V0.132H83.386z"/>
		<path fill="#FFFFFF" d="M87.398,0.407v0.328c-0.471-0.25-0.932-0.375-1.384-0.375c-0.482,0-0.885,0.164-1.209,0.492
			c-0.324,0.328-0.486,0.737-0.486,1.228c0,0.496,0.163,0.905,0.489,1.225c0.326,0.32,0.742,0.481,1.248,0.481
			c0.422,0,0.883-0.132,1.381-0.397v0.311c-0.459,0.243-0.918,0.364-1.375,0.364c-0.591,0-1.083-0.189-1.477-0.568
			c-0.394-0.379-0.59-0.851-0.59-1.416c0-0.569,0.201-1.044,0.603-1.425c0.402-0.381,0.881-0.572,1.436-0.572
			C86.471,0.082,86.925,0.19,87.398,0.407z"/>
		<path fill="#FFFFFF" d="M90.918,0.132v0.25h-1.456v3.631h-0.303V0.382h-1.456v-0.25H90.918z"/>
		<path fill="#FFFFFF" d="M93.219,0.326v0.331c-0.337-0.198-0.627-0.297-0.87-0.297c-0.233,0-0.428,0.071-0.585,0.212
			c-0.157,0.142-0.235,0.317-0.235,0.527c0,0.15,0.046,0.285,0.139,0.406c0.093,0.12,0.286,0.236,0.581,0.347
			c0.295,0.111,0.509,0.204,0.645,0.278c0.135,0.074,0.25,0.182,0.345,0.322c0.094,0.141,0.142,0.323,0.142,0.547
			c0,0.298-0.109,0.55-0.328,0.756c-0.219,0.206-0.485,0.308-0.8,0.308c-0.322,0-0.654-0.113-0.995-0.339V3.371
			c0.376,0.276,0.702,0.414,0.978,0.414c0.23,0,0.424-0.074,0.582-0.224c0.158-0.149,0.238-0.332,0.238-0.549
			c0-0.165-0.049-0.314-0.147-0.446c-0.098-0.132-0.297-0.256-0.597-0.371c-0.3-0.115-0.514-0.208-0.643-0.278
			c-0.129-0.07-0.238-0.171-0.328-0.301c-0.09-0.13-0.135-0.298-0.135-0.504c0-0.285,0.109-0.528,0.328-0.729
			c0.218-0.201,0.482-0.301,0.789-0.301C92.623,0.082,92.922,0.163,93.219,0.326z"/>
	</g>
</g>
</svg>
