<?xml version="1.0" encoding="utf-8"?>
<!-- Generator: Adobe Illustrator 19.2.1, SVG Export Plug-In . SVG Version: 6.00 Build 0)  -->
<svg version="1.1"
	 id="Layer_1" xmlns:cc="http://creativecommons.org/ns#" xmlns:dc="http://purl.org/dc/elements/1.1/" xmlns:rdf="http://www.w3.org/1999/02/22-rdf-syntax-ns#"
	 xmlns="http://www.w3.org/2000/svg" xmlns:xlink="http://www.w3.org/1999/xlink" x="0px" y="0px" viewBox="0 0 480 480"
	 enable-background="new 0 0 480 480" xml:space="preserve">
<title>Node-RED Icon</title>
<g transform="translate(0 -572.36)">
	<path fill="#8F0000" d="M72,588.36h336c30.928,0,56,25.072,56,56v336c0,30.928-25.072,56-56,56H72c-30.928,0-56-25.072-56-56v-336
		C16,613.432,41.072,588.36,72,588.36z"/>
	<g transform="matrix(8.545 0 0 8.545 -786.19 -1949.8)">
		<path fill="#FFFFFF" d="M104.41,321.21c0.014-2.385-1.905-4.281-4.29-4.281h-6.243v2.926h6.243c0.805,0,1.481,0.584,1.481,1.389
			v4.242c0,0.805-0.676,1.508-1.481,1.508h-6.243v2.809h6.243c2.385,0,4.289-1.931,4.289-4.316l0-1.981
			c9.866,0.141,12.737,2.707,15.877,5.452c3.024,2.645,6.415,5.487,15.252,5.557l0,0.972c0.001,2.385,1.954,4.38,4.339,4.38h6.427
			v-3.043h-6.427c-0.805,0-1.413-0.533-1.413-1.338v-4.242c0-0.805,0.608-1.442,1.413-1.442h6.427v-2.809h-6.427
			c-2.385,0-4.338,1.866-4.339,4.25l0,1.005c-8.351-0.028-10.723-2.343-13.76-4.999c-2.591-2.266-5.637-4.758-12.346-5.664
			c0.058-0.05,0.112-0.099,0.168-0.15c1.292-1.185,1.988-2.616,2.67-3.852c0.681-1.236,1.323-2.267,2.373-2.988
			c0.852-0.585,2.064-1.021,3.926-1.102l0,0.992c0,2.385,1.924,4.432,4.308,4.432h17.242c2.385,0,4.313-2.048,4.313-4.432v-4.242
			c0-2.385-1.928-4.315-4.313-4.315h-17.242c-2.385,0-4.31,1.931-4.308,4.315l0.001,0.984c-2.247,0.09-3.951,0.636-5.208,1.499
			c-1.524,1.046-2.366,2.476-3.076,3.764c-0.71,1.287-1.311,2.441-2.219,3.273c-0.79,0.725-1.883,1.284-3.658,1.493L104.41,321.21z
			 M122.878,308.854h17.242c0.805,0,1.387,0.585,1.387,1.39v4.242c0,0.805-0.582,1.39-1.387,1.39h-17.242
			c-0.805,0-1.499-0.585-1.499-1.39v-4.242C121.379,309.439,122.073,308.854,122.878,308.854z"/>
	</g>
</g>
</svg>
