<?xml version="1.0" encoding="UTF-8"?>
<svg width="874px" height="989px" viewBox="0 0 874 989" version="1.1" xmlns="http://www.w3.org/2000/svg" xmlns:xlink="http://www.w3.org/1999/xlink">
    <!-- Generator: Sketch 40.3 (33839) - http://www.bohemiancoding.com/sketch -->
    <title>icon</title>
    <desc>Created with Sketch.</desc>
    <defs></defs>
    <g id="Icon" stroke="none" stroke-width="1" fill="none" fill-rule="evenodd">
        <g id="icon">
            <g id="cube">
                <polygon id="border" fill="#FFFFFF" points="386.995555 0 773.991111 218.926312 773.991111 656.778936 386.995555 875.705248 3.88630819e-13 656.778936 1.4029432e-13 218.926312"></polygon>
                <g stroke-width="1" transform="translate(47.000000, 61.000000)">
                    <g>
                        <path d="M657.873333,580.673665 L352.774704,753.270266 L352.774704,618.855754 L542.907274,514.29798 L657.873333,580.673665 Z M678.756393,561.792596 L678.756393,200.879411 L567.118828,265.333389 L567.118828,485.143908 L567.118828,497.338618 L678.756393,561.792596 Z M20.8830605,580.673665 L325.981689,753.270266 L325.981689,618.855754 L135.849119,514.29798 L20.8830605,580.673665 Z M1.80262051e-13,561.792596 L-2.44367716e-14,200.879411 L111.637565,265.333389 L111.637565,485.143908 L111.637565,497.338618 L2.0250468e-13,561.792596 Z M13.0709342,177.488009 L325.981689,0.472029449 L325.981689,130.421685 L125.518524,240.660464 L123.966818,241.513778 L13.0709342,177.488009 Z M665.685459,177.488009 L352.774704,0.472029449 L352.774704,130.421685 L553.237869,240.660464 L554.789575,241.513778 L665.685459,177.488009 Z" id="outer-cube" fill="#8ED6FB"></path>
                        <path d="M325.981689,588.282084 L138.43058,485.143908 L138.43058,280.802344 L325.981689,389.085027 L325.981689,588.282084 Z M352.774704,588.282084 L540.325813,485.143908 L540.325813,280.802344 L352.774704,389.085027 L352.774704,588.282084 Z M339.403391,381.336004 L339.378197,381.292365 L339.353002,381.336004 L339.403391,381.336004 Z M151.088673,257.172588 L339.378197,153.628343 L527.66772,257.172588 L339.378197,365.881595 L151.088673,257.172588 Z" id="inner-cube" fill="#1C78C0"></path>
                    </g>
                </g>
            </g>
        </g>
    </g>
</svg>