<?xml version="1.0" encoding="utf-8"?>
<!-- Generator: Adobe Illustrator 19.2.1, SVG Export Plug-In . SVG Version: 6.00 Build 0)  -->
<svg version="1.1" id="Layer_1" xmlns="http://www.w3.org/2000/svg" xmlns:xlink="http://www.w3.org/1999/xlink" x="0px" y="0px"
	 viewBox="0 0 3046.746 875.705" enable-background="new 0 0 3046.746 875.705" xml:space="preserve" width="3046.746" height="875.705">
<title>logo-on-white-bg</title>
<desc>Created with Sketch.</desc>
<g id="Logo-_x2B_-Text">
	<g id="logo-on-white-bg">
		<g id="logo-on-light-bg" transform="translate(421.000000, 336.000000)">
			<g id="logo">
				<g id="cube">
					<polygon id="border" fill="#FFFFFF" points="-34.004,-336 352.991,-117.074 352.991,320.779 -34.004,539.705 -421,320.779
						-421,-117.074 					"/>
					<g transform="translate(47.000000, 61.000000)">
						<g>
							<path id="outer-cube" fill="#8ED6FB" d="M236.873,244.674L-68.225,417.27V282.856l190.133-104.558L236.873,244.674z
								 M257.756,225.793v-360.913L146.119-70.667v219.811v12.195L257.756,225.793z M-400.117,244.674L-95.018,417.27V282.856
								l-190.133-104.558L-400.117,244.674z M-421,225.793v-360.913l111.638,64.454v219.811v12.195L-421,225.793z M-407.929-158.512
								l312.911-177.016v129.95L-295.481-95.34l-1.552,0.853L-407.929-158.512z M244.685-158.512L-68.225-335.528v129.95
								L132.238-95.34l1.552,0.853L244.685-158.512z"/>
							<path id="inner-cube" fill="#1C78C0" d="M-95.018,252.282l-187.551-103.138V-55.198L-95.018,53.085V252.282z
								 M-68.225,252.282l187.551-103.138V-55.198L-68.225,53.085V252.282z M-81.597,45.336l-0.025-0.044l-0.025,0.044H-81.597z
								 M-269.911-78.827l188.29-103.544l188.29,103.544L-81.622,29.882L-269.911-78.827z"/>
						</g>
					</g>
				</g>
				<g id="webpack-on-bright-bg" transform="translate(894.000000, 188.000000)">
					<path id="webpack" fill="#1A1C1C" d="M-150.731,52.282h82.522l84.13-280.214h-80.379l-49.835,198.775l-53.05-198.775h-69.662
						l-53.586,198.775l-49.299-198.775h-80.379l83.594,280.214h82.522l51.978-179.487L-150.731,52.282z M20.208-87.022
						c0,84.118,57.337,146.269,147.362,146.269c69.662,0,107.172-41.791,117.889-61.615l-48.763-36.969
						c-8.038,11.787-30.008,34.29-68.054,34.29c-41.261,0-71.269-26.789-72.877-64.294h197.197
						c0.536-5.358,0.536-10.716,0.536-16.073c0-91.619-49.299-149.483-136.109-149.483C77.545-234.898,20.208-171.675,20.208-87.022
						L20.208-87.022z M97.908-117.561c3.215-32.147,25.721-56.793,60.552-56.793c33.759,0,58.409,22.503,60.016,56.793H97.908z
						 M321.362,52.282h69.662V23.349c7.502,9.108,35.367,35.897,83.058,35.897c80.379,0,137.18-60.543,137.18-146.804
						c0-86.797-52.514-147.34-132.893-147.34c-48.227,0-76.092,26.789-83.058,36.433v-136.625h-73.949V52.282z M393.167-87.022
						c0-52.507,31.08-82.511,71.805-82.511c42.869,0,71.805,33.754,71.805,82.511c0,49.828-30.008,80.903-71.805,80.903
						C419.96-6.119,393.167-42.552,393.167-87.022L393.167-87.022z M640.199,152.473h73.949V23.349
						c6.966,9.108,34.831,35.897,83.058,35.897c80.379,0,132.893-60.543,132.893-147.34c0-85.725-56.801-146.804-137.18-146.804
						c-47.692,0-75.556,26.789-83.058,36.433v-29.468h-69.662V152.473z M712.004-88.629c0-44.47,26.793-80.903,71.805-80.903
						c41.797,0,71.805,31.075,71.805,80.903c0,48.756-28.936,82.511-71.805,82.511C743.084-6.119,712.004-36.122,712.004-88.629
						L712.004-88.629z M943.495-34.515c0,58.936,48.227,93.762,105.029,93.762c32.152,0,53.586-9.644,68.054-25.182l4.823,18.217
						h65.375v-177.344c0-62.687-26.793-109.835-116.818-109.835c-42.869,0-85.202,16.073-110.387,33.219l27.865,50.364
						c20.899-10.716,46.62-19.824,74.485-19.824c32.688,0,50.907,16.609,50.907,41.255v18.217
						c-10.181-6.965-32.152-15.538-60.552-15.538C986.9-127.206,943.495-89.701,943.495-34.515L943.495-34.515z M1017.444-36.658
						c0-23.039,19.827-39.112,48.227-39.112c28.401,0,48.763,14.466,48.763,39.112c0,23.574-20.363,38.576-48.227,38.576
						S1017.444-13.62,1017.444-36.658L1017.444-36.658z M1366.289-6.119c-46.62,0-79.843-33.754-79.843-81.439
						c0-45.006,29.472-81.975,77.164-81.975c31.616,0,53.05,15.538,65.375,26.789l20.899-62.151
						c-18.219-13.93-47.156-30.004-88.417-30.004c-85.202,0-148.969,62.687-148.969,147.876s62.16,146.269,149.505,146.269
						c40.725,0,71.269-17.145,87.345-30.004L1429.521-31.3C1417.196-21.121,1394.69-6.119,1366.289-6.119L1366.289-6.119z
						 M1477.212,52.282h73.949V-92.38l93.776,144.661h86.809l-106.1-153.234l98.598-126.98h-83.058l-90.024,117.872v-225.029
						h-73.949V52.282z"/>
				</g>
			</g>
		</g>
	</g>
</g>
</svg>
