<?xml version="1.0" encoding="utf-8"?>
<!-- Generator: Adobe Illustrator 19.2.1, SVG Export Plug-In . SVG Version: 6.00 Build 0)  -->
<svg version="1.1" id="Layer_1" xmlns="http://www.w3.org/2000/svg" xmlns:xlink="http://www.w3.org/1999/xlink" x="0px" y="0px"
	 viewBox="0 0 309.555 37.754" enable-background="new 0 0 309.555 37.754" xml:space="preserve">
<g>
	<path fill="#343433" d="M0,1.68h5.599v27.195H0V1.68z"/>
	<path fill="#343433" d="M10.64,11.838h5.399l-0.12,2.8c1.04-2.04,3.04-3.16,5.399-3.16c3.719,0,6.399,2.72,6.399,7.56v9.838h-5.399
		v-9.479c0-1.92-0.92-2.999-2.84-2.999c-2.16,0-3.439,1.199-3.439,3.359v9.118H10.64V11.838z"/>
	<path fill="#343433" d="M31.84,11.838h5.399l-0.12,2.8c1.04-2.04,3.04-3.16,5.399-3.16c3.719,0,6.399,2.72,6.399,7.56v9.838h-5.399
		v-9.479c0-1.92-0.92-2.999-2.84-2.999c-2.16,0-3.439,1.199-3.439,3.359v9.118H31.84V11.838z"/>
	<path fill="#343433" d="M52.439,20.396c0-5.199,4.12-8.919,9.398-8.919c5.279,0,9.358,3.72,9.358,8.919
		c0,5.159-4.079,8.839-9.358,8.839C56.559,29.235,52.439,25.556,52.439,20.396z M65.677,20.396c0-2.56-1.439-4.279-3.839-4.279
		c-2.399,0-3.879,1.72-3.879,4.279c0,2.52,1.48,4.279,3.879,4.279C64.238,24.676,65.677,22.916,65.677,20.396z"/>
	<path fill="#343433" d="M72.08,11.838h5.959l2.4,5.079c0.72,1.6,1.319,4.119,1.399,4.479c0.04-0.24,0.6-2.84,1.32-4.479l2.32-5.079
		h5.479l-9.119,17.397h-0.52L72.08,11.838z"/>
	<path fill="#343433" d="M99.638,15.917c-2.04,0-3.12,0.88-3.879,1.56l-3-3.199c1.6-1.56,3.399-2.8,7.399-2.8
		c4.359,0,7.679,2.36,7.679,7.719v9.679h-5.359l0.12-2.359c-1.28,1.959-2.759,2.72-5.039,2.72c-3.12,0-5.999-1.4-5.999-5.359
		c0-3.64,2.76-5.119,6.959-5.119h3.959C102.398,16.797,101.438,15.917,99.638,15.917z M98.798,21.956c-1.36,0-1.959,0.6-1.959,1.56
		s0.8,1.52,2.319,1.52c2.2,0,3.32-0.959,3.32-2.399v-0.68H98.798z"/>
	<path fill="#343433" d="M113.399,22.477v-6.159h-2.52v-4.479h2.52V5.759h5.359v6.079h4.359v4.479h-4.359v6.318
		c0,1.72,0.56,2.08,1.399,2.08c0.88,0,1.52-0.48,1.88-0.72l2.04,3.759c-0.84,0.681-2.279,1.56-4.759,1.56
		C115.879,29.314,113.399,27.596,113.399,22.477z"/>
	<path fill="#343433" d="M135.958,24.756c1.96,0,3.439-0.76,4.279-1.36l3.08,3.32c-1.64,1.439-3.719,2.52-7.279,2.52
		c-6.079,0-9.999-3.68-9.999-8.919c0-5.159,4.12-8.839,9.398-8.839c6.119,0,9.438,4.56,9.039,10.519h-12.917
		C132.079,23.756,133.519,24.756,135.958,24.756z M139.038,18.877c-0.24-1.88-1.44-3-3.56-3s-3.559,0.96-3.999,3H139.038z"/>
	<path fill="#343433" d="M166.197,6.479h-7.638l0.84-4.799h20.716l-0.84,4.799h-7.559l-3.959,22.396h-5.519L166.197,6.479z"/>
	<path fill="#343433" d="M174.879,20.597c0-5.52,4.199-9.119,9.479-9.119c5.039,0,8.998,3.56,8.998,8.679
		c0,5.52-4.199,9.079-9.478,9.079C178.838,29.235,174.879,25.596,174.879,20.597z M187.917,20.116c0-2.479-1.439-4.079-3.72-4.079
		c-2.399,0-3.879,1.88-3.879,4.64c0,2.479,1.439,4.079,3.719,4.079C186.438,24.756,187.917,22.876,187.917,20.116z"/>
	<path fill="#343433" d="M194.32,34.474l3.52-3.399c1.079,1.24,2.479,2.2,4.799,2.2c2.439,0,4.159-1.4,4.719-4.439l0.4-2.239
		c-1.08,1.52-2.439,2.64-4.839,2.64c-3.8,0-6.879-3.16-6.879-8.159c0-6.159,3.839-9.599,8.278-9.599c2.439,0,4.52,0.88,5.679,3.08
		l0.36-2.72h5.279l-3.12,17.757c-1.039,6.039-5.079,8.159-9.918,8.159C198.439,37.754,195.599,35.994,194.32,34.474z
		 M208.997,20.036c0-2.399-1.279-3.959-3.479-3.959c-2.44,0-3.96,1.88-3.96,4.759c0,2.4,1.32,3.84,3.479,3.84
		C207.397,24.676,208.997,22.756,208.997,20.036z"/>
	<path fill="#343433" d="M227.117,24.956c2.04,0,3.24-0.8,4.159-1.48l3.08,3.439c-1.92,1.48-4.039,2.32-7.279,2.32
		c-5.919,0-9.518-3.56-9.518-8.639c0-5.6,4.438-9.119,9.638-9.119c6.079,0,9.119,4.52,8.358,10.438h-12.638
		C223.278,23.796,224.637,24.956,227.117,24.956z M230.436,18.917c0.04-1.96-1.239-3.24-3.399-3.24c-2.119,0-3.559,1.08-4.039,3.24
		H230.436z"/>
	<path fill="#343433" d="M240.119,22.477l1.12-6.279h-2.48l0.761-4.359h2.479l1.079-6.079h5.239l-1.08,6.079h4.12l-0.76,4.359h-4.12
		l-1.119,6.438c-0.32,1.72,0.159,2.12,1,2.12c0.8,0,1.439-0.36,1.839-0.6l1.68,3.719c-0.92,0.68-2.079,1.36-4.599,1.36
		C242.079,29.235,239.199,27.715,240.119,22.477z"/>
	<path fill="#343433" d="M257.158,0h5.279l-2.6,14.758c1.359-2.12,2.959-3.28,5.399-3.28c3.719,0,5.959,3.16,5.119,7.959l-0.8,4.479
		c-0.12,0.72,0.119,1,0.72,1h1.199l-0.68,3.959h-1.72c-3.64,0-5.439-1.24-4.759-5.119l0.72-4.159
		c0.399-2.279-0.521-3.439-2.399-3.439c-2.12,0-3.2,1.04-3.64,3.479l-1.64,9.238h-5.279L257.158,0z"/>
	<path fill="#343433" d="M283.476,24.956c2.04,0,3.24-0.8,4.16-1.48l3.079,3.439c-1.92,1.48-4.039,2.32-7.279,2.32
		c-5.919,0-9.518-3.56-9.518-8.639c0-5.6,4.438-9.119,9.638-9.119c6.079,0,9.119,4.52,8.359,10.438h-12.639
		C279.637,23.796,280.997,24.956,283.476,24.956z M286.796,18.917c0.04-1.96-1.24-3.24-3.4-3.24c-2.119,0-3.559,1.08-4.039,3.24
		H286.796z"/>
	<path fill="#343433" d="M297.158,11.838h5.279l-0.681,3.279c1.68-2.919,3.399-3.64,5.239-3.64c1.2,0,1.92,0.32,2.56,0.681
		l-1.999,4.839c-0.641-0.4-1.36-0.56-2.2-0.56c-2.319,0-3.919,0.959-4.599,4.879l-1.32,7.559h-5.279L297.158,11.838z"/>
</g>
</svg>
